<svg width="40" height="40" viewBox="0 0 40 40" fill="none" xmlns="http://www.w3.org/2000/svg">
<path d="M20 37.9166C10.1167 37.9166 2.08334 29.8833 2.08334 20C2.08334 10.1166 10.1167 2.08331 20 2.08331C29.8833 2.08331 37.9167 10.1166 37.9167 20C37.9167 29.8833 29.8833 37.9166 20 37.9166ZM20 4.58331C11.5 4.58331 4.58334 11.5 4.58334 20C4.58334 28.5 11.5 35.4166 20 35.4166C28.5 35.4166 35.4167 28.5 35.4167 20C35.4167 11.5 28.5 4.58331 20 4.58331Z" fill="#FFC091"/>
<path d="M26.6667 21.25H13.3333C12.65 21.25 12.0833 20.6833 12.0833 20C12.0833 19.3166 12.65 18.75 13.3333 18.75H26.6667C27.35 18.75 27.9167 19.3166 27.9167 20C27.9167 20.6833 27.35 21.25 26.6667 21.25Z" fill="#FFC091"/>
<path d="M20 27.9166C19.3167 27.9166 18.75 27.35 18.75 26.6666V13.3333C18.75 12.65 19.3167 12.0833 20 12.0833C20.6833 12.0833 21.25 12.65 21.25 13.3333V26.6666C21.25 27.35 20.6833 27.9166 20 27.9166Z" fill="#FFC091"/>
</svg>
