<svg width="40" height="40" viewBox="0 0 40 40" fill="none" xmlns="http://www.w3.org/2000/svg">
<path d="M20.0002 37.9167C10.1168 37.9167 2.0835 29.8833 2.0835 20C2.0835 10.1167 10.1168 2.08334 20.0002 2.08334C29.8835 2.08334 37.9168 10.1167 37.9168 20C37.9168 29.8833 29.8835 37.9167 20.0002 37.9167ZM20.0002 4.58334C11.5002 4.58334 4.5835 11.5 4.5835 20C4.5835 28.5 11.5002 35.4167 20.0002 35.4167C28.5002 35.4167 35.4168 28.5 35.4168 20C35.4168 11.5 28.5002 4.58334 20.0002 4.58334Z" fill="#260A2F"/>
<path d="M24.1665 21.25H14.1665C13.4832 21.25 12.9165 20.6833 12.9165 20C12.9165 19.3167 13.4832 18.75 14.1665 18.75H24.1665C24.8498 18.75 25.4165 19.3167 25.4165 20C25.4165 20.6833 24.8498 21.25 24.1665 21.25Z" fill="#260A2F"/>
<path d="M20.8332 26.25C20.5166 26.25 20.1999 26.1333 19.9499 25.8833C19.4666 25.4 19.4666 24.6 19.9499 24.1167L24.0666 20L19.9499 15.8833C19.4666 15.4 19.4666 14.6 19.9499 14.1167C20.4332 13.6333 21.2332 13.6333 21.7166 14.1167L26.7166 19.1167C27.1999 19.6 27.1999 20.4 26.7166 20.8833L21.7166 25.8833C21.4666 26.1333 21.1499 26.25 20.8332 26.25Z" fill="#260A2F"/>
</svg>
