<svg width="24" height="24" viewBox="0 0 24 24" fill="none" xmlns="http://www.w3.org/2000/svg">
<path d="M12 22.25C6.34614 22.25 1.75 17.6539 1.75 12C1.75 6.34614 6.34614 1.75 12 1.75C17.6539 1.75 22.25 6.34614 22.25 12C22.25 17.6539 17.6539 22.25 12 22.25ZM12 2.25C6.62386 2.25 2.25 6.62386 2.25 12C2.25 17.3761 6.62386 21.75 12 21.75C17.3761 21.75 21.75 17.3761 21.75 12C21.75 6.62386 17.3761 2.25 12 2.25Z" stroke="white"/>
<path d="M10.4364 11.6464L10.0828 12L10.4364 12.3535L13.4364 15.3535C13.5311 15.4483 13.5311 15.6117 13.4364 15.7064L13.4303 15.7125L13.4244 15.7188C13.3919 15.7536 13.3416 15.78 13.2599 15.78C13.1954 15.78 13.1348 15.7577 13.0835 15.7064L9.55348 12.1764C9.45874 12.0817 9.45874 11.9183 9.55348 11.8235L13.0835 8.29353C13.1782 8.19879 13.3416 8.19879 13.4364 8.29353C13.5311 8.38826 13.5311 8.55168 13.4364 8.64642L10.4364 11.6464Z" fill="white" stroke="white"/>
</svg>
