<svg width="32" height="32" viewBox="0 0 32 32" fill="none" xmlns="http://www.w3.org/2000/svg">
<path d="M16 30.3334C8.09334 30.3334 1.66667 23.9067 1.66667 16C1.66667 8.09335 8.09334 1.66669 16 1.66669C23.9067 1.66669 30.3333 8.09335 30.3333 16C30.3333 23.9067 23.9067 30.3334 16 30.3334ZM16 3.66669C9.20001 3.66669 3.66667 9.20002 3.66667 16C3.66667 22.8 9.20001 28.3334 16 28.3334C22.8 28.3334 28.3333 22.8 28.3333 16C28.3333 9.20002 22.8 3.66669 16 3.66669Z" fill="#FFC091"/>
<path d="M20.6667 17H12.6667C12.12 17 11.6667 16.5467 11.6667 16C11.6667 15.4533 12.12 15 12.6667 15H20.6667C21.2133 15 21.6667 15.4533 21.6667 16C21.6667 16.5467 21.2133 17 20.6667 17Z" fill="#FFC091"/>
<path d="M15.3333 21C15.08 21 14.8267 20.9067 14.6267 20.7067L10.6267 16.7067C10.24 16.32 10.24 15.68 10.6267 15.2934L14.6267 11.2934C15.0133 10.9067 15.6533 10.9067 16.04 11.2934C16.4267 11.68 16.4267 12.32 16.04 12.7067L12.7467 16L16.04 19.2934C16.4267 19.68 16.4267 20.32 16.04 20.7067C15.84 20.9067 15.5867 21 15.3333 21Z" fill="#FFC091"/>
</svg>
