<svg width="16" height="16" viewBox="0 0 16 16" fill="none" xmlns="http://www.w3.org/2000/svg">
<path d="M8.00016 15.1666C4.04683 15.1666 0.833496 11.9533 0.833496 7.99998C0.833496 4.04665 4.04683 0.833313 8.00016 0.833313C11.9535 0.833313 15.1668 4.04665 15.1668 7.99998C15.1668 11.9533 11.9535 15.1666 8.00016 15.1666ZM8.00016 1.83331C4.60016 1.83331 1.8335 4.59998 1.8335 7.99998C1.8335 11.4 4.60016 14.1666 8.00016 14.1666C11.4002 14.1666 14.1668 11.4 14.1668 7.99998C14.1668 4.59998 11.4002 1.83331 8.00016 1.83331Z" fill="#F7F6F5"/>
<path d="M10.3534 9.34001C10.2268 9.34001 10.1001 9.29334 10.0001 9.19334L8.0001 7.19334L6.0001 9.19334C5.80677 9.38668 5.48677 9.38668 5.29344 9.19334C5.1001 9.00001 5.1001 8.68001 5.29344 8.48668L7.64677 6.13334C7.8401 5.94001 8.1601 5.94001 8.35344 6.13334L10.7068 8.48668C10.9001 8.68001 10.9001 9.00001 10.7068 9.19334C10.6068 9.29334 10.4801 9.34001 10.3534 9.34001Z" fill="#F7F6F5"/>
</svg>
