<svg width="16" height="16" viewBox="0 0 16 16" fill="none" xmlns="http://www.w3.org/2000/svg">
<path d="M7.99998 15.1667C4.04665 15.1667 0.833313 11.9533 0.833313 8C0.833313 4.04667 4.04665 0.833333 7.99998 0.833333C11.9533 0.833333 15.1666 4.04667 15.1666 8C15.1666 11.9533 11.9533 15.1667 7.99998 15.1667ZM7.99998 1.83333C4.59998 1.83333 1.83331 4.6 1.83331 8C1.83331 11.4 4.59998 14.1667 7.99998 14.1667C11.4 14.1667 14.1666 11.4 14.1666 8C14.1666 4.6 11.4 1.83333 7.99998 1.83333Z" fill="#FFC091"/>
<path d="M7.99998 10.0067C7.87332 10.0067 7.74665 9.96 7.64665 9.86L5.29332 7.50667C5.09998 7.31333 5.09998 6.99333 5.29332 6.8C5.48665 6.60667 5.80665 6.60667 5.99998 6.8L7.99998 8.8L9.99998 6.8C10.1933 6.60667 10.5133 6.60667 10.7066 6.8C10.9 6.99333 10.9 7.31333 10.7066 7.50667L8.35332 9.86C8.25332 9.96 8.12665 10.0067 7.99998 10.0067Z" fill="#FFC091"/>
</svg>
