<svg width="16" height="16" viewBox="0 0 16 16" fill="none" xmlns="http://www.w3.org/2000/svg">
<path d="M8.00001 15.1667C4.04668 15.1667 0.833344 11.9533 0.833344 8.00001C0.833344 4.04668 4.04668 0.833344 8.00001 0.833344C11.9533 0.833344 15.1667 4.04668 15.1667 8.00001C15.1667 11.9533 11.9533 15.1667 8.00001 15.1667ZM8.00001 1.83334C4.60001 1.83334 1.83334 4.60001 1.83334 8.00001C1.83334 11.4 4.60001 14.1667 8.00001 14.1667C11.4 14.1667 14.1667 11.4 14.1667 8.00001C14.1667 4.60001 11.4 1.83334 8.00001 1.83334Z" fill="#FFC091"/>
<path d="M7.16002 10.8533C7.03335 10.8533 6.90668 10.8067 6.80668 10.7067C6.61335 10.5133 6.61335 10.1933 6.80668 10L8.80668 8.00001L6.80668 6.00001C6.61335 5.80668 6.61335 5.48668 6.80668 5.29335C7.00002 5.10001 7.32002 5.10001 7.51335 5.29335L9.86668 7.64668C10.06 7.84001 10.06 8.16001 9.86668 8.35335L7.51335 10.7067C7.41335 10.8067 7.28668 10.8533 7.16002 10.8533Z" fill="#FFC091"/>
</svg>
