<svg width="44" height="44" viewBox="0 0 44 44" fill="none" xmlns="http://www.w3.org/2000/svg">
<rect width="44" height="44" rx="22" fill="#FFC091"/>
<path d="M22 32.75C16.07 32.75 11.25 27.93 11.25 22C11.25 16.07 16.07 11.25 22 11.25C27.93 11.25 32.75 16.07 32.75 22C32.75 27.93 27.93 32.75 22 32.75ZM22 12.75C16.9 12.75 12.75 16.9 12.75 22C12.75 27.1 16.9 31.25 22 31.25C27.1 31.25 31.25 27.1 31.25 22C31.25 16.9 27.1 12.75 22 12.75Z" fill="#260A2F"/>
<path d="M25.5 22.75H19.5C19.09 22.75 18.75 22.41 18.75 22C18.75 21.59 19.09 21.25 19.5 21.25H25.5C25.91 21.25 26.25 21.59 26.25 22C26.25 22.41 25.91 22.75 25.5 22.75Z" fill="#260A2F"/>
<path d="M21.4999 25.7499C21.3099 25.7499 21.1199 25.6799 20.9699 25.5299L17.9699 22.5299C17.6799 22.2399 17.6799 21.7599 17.9699 21.4699L20.9699 18.4699C21.2599 18.1799 21.7399 18.1799 22.0299 18.4699C22.3199 18.7599 22.3199 19.2399 22.0299 19.5299L19.5599 21.9999L22.0299 24.4699C22.3199 24.7599 22.3199 25.2399 22.0299 25.5299C21.8799 25.6799 21.6899 25.7499 21.4999 25.7499Z" fill="#260A2F"/>
</svg>
