<svg width="16" height="17" viewBox="0 0 16 17" fill="none" xmlns="http://www.w3.org/2000/svg">
<path d="M13.6134 8.64665C13.3401 8.64665 13.1134 8.41998 13.1134 8.14665V5.93335C13.1134 5.10668 12.4401 4.43335 11.6134 4.43335H2.38672C2.11339 4.43335 1.88672 4.20668 1.88672 3.93335C1.88672 3.66002 2.11339 3.43335 2.38672 3.43335H11.6134C12.9934 3.43335 14.1134 4.55335 14.1134 5.93335V8.14665C14.1134 8.42665 13.8867 8.64665 13.6134 8.64665Z" fill="white"/>
<path d="M4.49339 6.54665C4.36672 6.54665 4.24006 6.49996 4.14006 6.39996L2.03339 4.29332C1.94005 4.19998 1.88672 4.0733 1.88672 3.93996C1.88672 3.80663 1.94005 3.67998 2.03339 3.58665L4.14006 1.47996C4.33339 1.28663 4.65339 1.28663 4.84672 1.47996C5.04005 1.67329 5.04005 1.99333 4.84672 2.18667L3.0934 3.93996L4.84672 5.6933C5.04005 5.88663 5.04005 6.20663 4.84672 6.39996C4.74672 6.4933 4.62005 6.54665 4.49339 6.54665Z" fill="white"/>
<path d="M13.6134 13.56H4.38672C3.00672 13.56 1.88672 12.44 1.88672 11.06V8.84668C1.88672 8.57335 2.11339 8.34668 2.38672 8.34668C2.66005 8.34668 2.88672 8.57335 2.88672 8.84668V11.06C2.88672 11.8867 3.56005 12.56 4.38672 12.56H13.6134C13.8867 12.56 14.1134 12.7867 14.1134 13.06C14.1134 13.3334 13.8867 13.56 13.6134 13.56Z" fill="white"/>
<path d="M11.5071 15.6667C11.3805 15.6667 11.2538 15.62 11.1538 15.52C10.9605 15.3267 10.9605 15.0066 11.1538 14.8133L12.9071 13.06L11.1538 11.3067C10.9605 11.1133 10.9605 10.7934 11.1538 10.6C11.3471 10.4067 11.6671 10.4067 11.8605 10.6L13.9671 12.7067C14.0605 12.8 14.1138 12.9267 14.1138 13.06C14.1138 13.1934 14.0605 13.32 13.9671 13.4133L11.8605 15.52C11.7671 15.62 11.6405 15.6667 11.5071 15.6667Z" fill="white"/>
</svg>
