<svg width="32" height="32" viewBox="0 0 32 32" fill="none" xmlns="http://www.w3.org/2000/svg">
<path d="M2.6665 16C2.6665 23.3544 8.64546 29.3333 15.9998 29.3333C8.64755 29.3333 2.6665 23.3523 2.6665 16ZM2.6665 16C2.6665 8.64587 8.64505 2.66707 15.9991 2.66666C8.64714 2.66707 2.6665 8.64797 2.6665 16ZM15.9998 2.66666C23.3537 2.66666 29.3324 8.64479 29.3332 15.9985C29.3323 8.64689 23.3516 2.66666 15.9998 2.66666ZM29.3332 16C29.3332 23.3539 23.355 29.3325 16.0014 29.3333C23.3529 29.3325 29.3332 23.3518 29.3332 16Z" stroke="#A8200D" stroke-width="2"/>
<path d="M12.2099 19.79L12.2023 19.7977L12.2099 19.7901C12.2099 19.7901 12.2099 19.7901 12.2099 19.79Z" fill="#A8200D" stroke="#A8200D" stroke-width="2"/>
<path d="M19.7733 20.7733C19.52 20.7733 19.2666 20.68 19.0666 20.48L11.52 12.9333C11.1333 12.5467 11.1333 11.9067 11.52 11.52C11.9066 11.1333 12.5466 11.1333 12.9333 11.52L20.48 19.0667C20.8666 19.4533 20.8666 20.0933 20.48 20.48C20.28 20.68 20.0266 20.7733 19.7733 20.7733Z" fill="#A8200D"/>
</svg>
