<svg width="56" height="64" viewBox="0 0 56 64" fill="none" xmlns="http://www.w3.org/2000/svg">
<path opacity="0.58" d="M3.51245 1.51585C3.51245 0.6937 4.17893 0.0272217 5.00108 0.0272217H36.4077L52.8553 15.7772V61.5386C52.8553 62.3607 52.1888 63.0272 51.3666 63.0272H5.00108C4.17893 63.0272 3.51245 62.3607 3.51245 61.5386V1.51585Z" fill="#FFC091" fill-opacity="0.77"/>
<path d="M36.3843 0.0272217L52.8319 15.7772H37.8729C37.0508 15.7772 36.3843 15.1107 36.3843 14.2886V0.0272217Z" fill="white" fill-opacity="0.14"/>
<rect x="0.5354" y="28.8374" width="54.9296" height="21" rx="3.72156" fill="white"/>
<rect x="0.907557" y="29.2096" width="54.1853" height="20.2557" rx="3.34941" stroke="white" stroke-opacity="0.14" stroke-width="0.744313"/>
<path d="M21.818 43.2656H20.4748V37.0117H23.0653C23.7064 37.0117 24.2341 37.2123 24.6441 37.6135C25.0497 38.0191 25.2547 38.5337 25.2547 39.1574C25.2547 39.781 25.0497 40.2956 24.6441 40.6969C24.2341 41.0981 23.7064 41.2987 23.0653 41.2987H21.818V43.2656ZM21.818 38.2197V40.095H22.9345C23.5494 40.095 23.9158 39.7374 23.9158 39.1574C23.9158 38.5773 23.5494 38.2197 22.9345 38.2197H21.818ZM28.6433 43.2656H26.2316V37.0117H28.6433C29.5199 37.0117 30.2133 37.2864 30.7323 37.8403C31.247 38.3942 31.5043 39.1617 31.5043 40.1386C31.5043 41.1155 31.247 41.8788 30.7323 42.4326C30.2133 42.9865 29.5199 43.2656 28.6433 43.2656ZM27.5748 38.2197V42.0619H28.5997C29.0533 42.0619 29.4283 41.8962 29.7205 41.5648C30.0127 41.2333 30.161 40.7579 30.161 40.1386C30.161 39.5193 30.0127 39.044 29.7205 38.7125C29.4283 38.3854 29.0533 38.2197 28.5997 38.2197H27.5748ZM33.8288 43.2656H32.4855V37.0117H36.729V38.2197H33.8288V39.6938H36.5066V40.8975H33.8288V43.2656Z" fill="#260A2F"/>
</svg>
