<svg width="40" height="40" viewBox="0 0 40 40" fill="none" xmlns="http://www.w3.org/2000/svg">
<path d="M26.6667 37.5822H13.3333C10.3552 37.5822 8.0538 36.7266 6.49695 35.1697C4.94009 33.6129 4.0845 31.3115 4.0845 28.3333V11.6667C4.0845 8.68851 4.94009 6.38715 6.49695 4.83029C8.0538 3.27343 10.3552 2.41785 13.3333 2.41785H26.6667C29.6448 2.41785 31.9462 3.27343 33.5031 4.83029C35.0599 6.38715 35.9155 8.68851 35.9155 11.6667V28.3333C35.9155 31.3115 35.0599 33.6129 33.5031 35.1697C31.9462 36.7266 29.6448 37.5822 26.6667 37.5822ZM13.3333 4.24884C10.9008 4.24884 9.02868 4.83994 7.76764 6.10098C6.50659 7.36202 5.9155 9.23418 5.9155 11.6667V28.3333C5.9155 30.7658 6.50659 32.638 7.76764 33.899C9.02868 35.1601 10.9008 35.7512 13.3333 35.7512H26.6667C29.0992 35.7512 30.9713 35.1601 32.2324 33.899C33.4934 32.638 34.0845 30.7658 34.0845 28.3333V11.6667C34.0845 9.23418 33.4934 7.36202 32.2324 6.10098C30.9713 4.83994 29.0992 4.24884 26.6667 4.24884H13.3333Z" fill="#FFC091" stroke="#FFC091" stroke-width="0.669006"/>
<path d="M30.8332 15.1379H27.4998C25.1205 15.1379 23.1953 13.2127 23.1953 10.8333V7.5C23.1953 6.97062 23.6371 6.52875 24.1665 6.52875C24.6959 6.52875 25.1378 6.97062 25.1378 7.5V10.8333C25.1378 12.1373 26.1959 13.1954 27.4998 13.1954H30.8332C31.3626 13.1954 31.8044 13.6373 31.8044 14.1667C31.8044 14.696 31.3626 15.1379 30.8332 15.1379Z" fill="#FFC091" stroke="#FFC091" stroke-width="0.557505"/>
<path d="M20.0002 22.9167H13.3335C12.6502 22.9167 12.0835 22.35 12.0835 21.6667C12.0835 20.9833 12.6502 20.4167 13.3335 20.4167H20.0002C20.6835 20.4167 21.2502 20.9833 21.2502 21.6667C21.2502 22.35 20.6835 22.9167 20.0002 22.9167Z" fill="#FFC091"/>
<path d="M26.6668 29.5833H13.3335C12.6502 29.5833 12.0835 29.0167 12.0835 28.3333C12.0835 27.65 12.6502 27.0833 13.3335 27.0833H26.6668C27.3502 27.0833 27.9168 27.65 27.9168 28.3333C27.9168 29.0167 27.3502 29.5833 26.6668 29.5833Z" fill="#FFC091"/>
</svg>
