<svg width="16" height="16" viewBox="0 0 16 16" fill="none" xmlns="http://www.w3.org/2000/svg">
<path d="M6.00012 11.8333C5.72679 11.8333 5.50012 11.6067 5.50012 11.3333V8.54L5.02012 9.02C4.82679 9.21334 4.50679 9.21334 4.31346 9.02C4.12012 8.82667 4.12012 8.50667 4.31346 8.31334L5.64679 6.98C5.78679 6.84 6.00679 6.79334 6.19346 6.87334C6.38012 6.94667 6.50012 7.13334 6.50012 7.33334V11.3333C6.50012 11.6067 6.27346 11.8333 6.00012 11.8333Z" fill="#FFC091"/>
<path d="M7.33313 9.16667C7.20646 9.16667 7.0798 9.12 6.9798 9.02L5.64646 7.68667C5.45313 7.49333 5.45313 7.17333 5.64646 6.98C5.8398 6.78667 6.1598 6.78667 6.35313 6.98L7.68646 8.31333C7.8798 8.50667 7.8798 8.82667 7.68646 9.02C7.58646 9.12 7.4598 9.16667 7.33313 9.16667Z" fill="#FFC091"/>
<path d="M10.0002 15.1667H6.00016C2.38016 15.1667 0.833496 13.62 0.833496 10V6C0.833496 2.38 2.38016 0.833336 6.00016 0.833336H9.3335C9.60683 0.833336 9.8335 1.06 9.8335 1.33334C9.8335 1.60667 9.60683 1.83334 9.3335 1.83334H6.00016C2.92683 1.83334 1.8335 2.92667 1.8335 6V10C1.8335 13.0733 2.92683 14.1667 6.00016 14.1667H10.0002C13.0735 14.1667 14.1668 13.0733 14.1668 10V6.66667C14.1668 6.39334 14.3935 6.16667 14.6668 6.16667C14.9402 6.16667 15.1668 6.39334 15.1668 6.66667V10C15.1668 13.62 13.6202 15.1667 10.0002 15.1667Z" fill="#FFC091"/>
<path d="M14.6668 7.16667H12.0002C9.72016 7.16667 8.8335 6.28 8.8335 4V1.33334C8.8335 1.13334 8.9535 0.946669 9.14016 0.873336C9.32683 0.793336 9.54016 0.840003 9.68683 0.980003L15.0202 6.31334C15.1602 6.45334 15.2068 6.67334 15.1268 6.86C15.0468 7.04667 14.8668 7.16667 14.6668 7.16667ZM9.8335 2.54V4C9.8335 5.72 10.2802 6.16667 12.0002 6.16667H13.4602L9.8335 2.54Z" fill="#FFC091"/>
</svg>
