<svg width="16" height="16" viewBox="0 0 16 16" fill="none" xmlns="http://www.w3.org/2000/svg">
<path d="M10 15.1667H6.00004C2.38004 15.1667 0.833374 13.62 0.833374 10V6.00004C0.833374 2.38004 2.38004 0.833374 6.00004 0.833374H7.33337C7.60671 0.833374 7.83337 1.06004 7.83337 1.33337C7.83337 1.60671 7.60671 1.83337 7.33337 1.83337H6.00004C2.92671 1.83337 1.83337 2.92671 1.83337 6.00004V10C1.83337 13.0734 2.92671 14.1667 6.00004 14.1667H10C13.0734 14.1667 14.1667 13.0734 14.1667 10V8.66671C14.1667 8.39337 14.3934 8.16671 14.6667 8.16671C14.94 8.16671 15.1667 8.39337 15.1667 8.66671V10C15.1667 13.62 13.62 15.1667 10 15.1667Z" fill="#FFC091"/>
<path d="M5.66676 11.7934C5.26009 11.7934 4.88676 11.6467 4.61343 11.38C4.28676 11.0534 4.14676 10.58 4.22009 10.08L4.50676 8.07337C4.56009 7.68671 4.81343 7.18671 5.08676 6.91337L10.3401 1.66004C11.6668 0.333372 13.0134 0.333372 14.3401 1.66004C15.0668 2.38671 15.3934 3.12671 15.3268 3.86671C15.2668 4.46671 14.9468 5.05337 14.3401 5.65337L9.08676 10.9067C8.81343 11.18 8.31343 11.4334 7.92676 11.4867L5.92009 11.7734C5.83343 11.7934 5.74676 11.7934 5.66676 11.7934ZM11.0468 2.36671L5.79343 7.62004C5.66676 7.74671 5.52009 8.04004 5.49343 8.21337L5.20676 10.22C5.18009 10.4134 5.22009 10.5734 5.32009 10.6734C5.42009 10.7734 5.58009 10.8134 5.77343 10.7867L7.78009 10.5C7.95343 10.4734 8.25343 10.3267 8.37343 10.2L13.6268 4.94671C14.0601 4.51337 14.2868 4.12671 14.3201 3.76671C14.3601 3.33337 14.1334 2.87337 13.6268 2.36004C12.5601 1.29337 11.8268 1.59337 11.0468 2.36671Z" fill="#FFC091"/>
<path d="M13.2334 6.55343C13.1867 6.55343 13.1401 6.54677 13.1001 6.53343C11.3467 6.0401 9.95341 4.64677 9.46008 2.89343C9.38674 2.62677 9.54008 2.35343 9.80674 2.27343C10.0734 2.2001 10.3467 2.35343 10.4201 2.6201C10.8201 4.0401 11.9467 5.16677 13.3667 5.56677C13.6334 5.6401 13.7867 5.9201 13.7134 6.18677C13.6534 6.41343 13.4534 6.55343 13.2334 6.55343Z" fill="#FFC091"/>
</svg>
