<svg width="23" height="23" viewBox="0 0 23 23" fill="none" xmlns="http://www.w3.org/2000/svg">
<path d="M14 22.75H8C2.57 22.75 0.25 20.43 0.25 15V9C0.25 3.57 2.57 1.25 8 1.25H10C10.41 1.25 10.75 1.59 10.75 2C10.75 2.41 10.41 2.75 10 2.75H8C3.39 2.75 1.75 4.39 1.75 9V15C1.75 19.61 3.39 21.25 8 21.25H14C18.61 21.25 20.25 19.61 20.25 15V13C20.25 12.59 20.59 12.25 21 12.25C21.41 12.25 21.75 12.59 21.75 13V15C21.75 20.43 19.43 22.75 14 22.75Z" fill="#FFC091"/>
<path d="M7.50002 17.69C6.89002 17.69 6.33002 17.47 5.92002 17.07C5.43002 16.58 5.22002 15.87 5.33002 15.12L5.76002 12.11C5.84002 11.53 6.22002 10.78 6.63002 10.37L14.51 2.49C16.5 0.499998 18.52 0.499998 20.51 2.49C21.6 3.58 22.09 4.69 21.99 5.8C21.9 6.7 21.42 7.58 20.51 8.48L12.63 16.36C12.22 16.77 11.47 17.15 10.89 17.23L7.88002 17.66C7.75002 17.69 7.62002 17.69 7.50002 17.69ZM15.57 3.55L7.69002 11.43C7.50002 11.62 7.28002 12.06 7.24002 12.32L6.81002 15.33C6.77002 15.62 6.83002 15.86 6.98002 16.01C7.13002 16.16 7.37002 16.22 7.66002 16.18L10.67 15.75C10.93 15.71 11.38 15.49 11.56 15.3L19.44 7.42C20.09 6.77 20.43 6.19 20.48 5.65C20.54 5 20.2 4.31 19.44 3.54C17.84 1.94 16.74 2.39 15.57 3.55Z" fill="#FFC091"/>
<path d="M18.85 9.83003C18.78 9.83003 18.71 9.82003 18.65 9.80003C16.02 9.06003 13.93 6.97003 13.19 4.34003C13.08 3.94003 13.31 3.53003 13.71 3.41003C14.11 3.30003 14.52 3.53003 14.63 3.93003C15.23 6.06003 16.92 7.75003 19.05 8.35003C19.45 8.46003 19.68 8.88003 19.57 9.28003C19.48 9.62003 19.18 9.83003 18.85 9.83003Z" fill="#FFC091"/>
</svg>
