<svg width="52" height="52" viewBox="0 0 52 52" fill="none" xmlns="http://www.w3.org/2000/svg">
<path d="M32.5002 49.2916H19.5002C7.73516 49.2916 2.7085 44.2649 2.7085 32.4999V19.4999C2.7085 7.73492 7.73516 2.70825 19.5002 2.70825H32.5002C44.2652 2.70825 49.2918 7.73492 49.2918 19.4999V32.4999C49.2918 44.2649 44.2652 49.2916 32.5002 49.2916ZM19.5002 5.95825C9.51183 5.95825 5.9585 9.51159 5.9585 19.4999V32.4999C5.9585 42.4883 9.51183 46.0416 19.5002 46.0416H32.5002C42.4885 46.0416 46.0418 42.4883 46.0418 32.4999V19.4999C46.0418 9.51159 42.4885 5.95825 32.5002 5.95825H19.5002Z" fill="white"/>
<path d="M23.0531 20.5834C22.6415 20.5834 22.2298 20.4318 21.9048 20.1068C20.3665 18.5684 17.8531 18.5684 16.3148 20.1068C15.6865 20.7351 14.6465 20.7351 14.0181 20.1068C13.3898 19.4784 13.3898 18.4385 14.0181 17.8101C16.8131 15.0151 21.3848 15.0151 24.2015 17.8101C24.8298 18.4385 24.8298 19.4784 24.2015 20.1068C23.8765 20.4318 23.4648 20.5834 23.0531 20.5834Z" fill="white"/>
<path d="M28.9467 20.5834C28.5351 20.5834 28.1234 20.4318 27.7984 20.1068C27.1701 19.4784 27.1701 18.4385 27.7984 17.8101C30.5934 15.0151 35.1651 15.0151 37.9817 17.8101C38.6101 18.4385 38.6101 19.4784 37.9817 20.1068C37.3534 20.7351 36.3134 20.7351 35.6851 20.1068C34.1467 18.5684 31.6334 18.5684 30.0951 20.1068C29.7917 20.4318 29.3801 20.5834 28.9467 20.5834Z" fill="white"/>
<path d="M33.8 39.9749H18.2C16.2283 39.9749 14.625 38.3716 14.625 36.3999C14.625 30.1382 19.7167 25.0249 26 25.0249C32.2833 25.0249 37.375 30.1382 37.375 36.3999C37.375 38.3716 35.7717 39.9749 33.8 39.9749ZM26 28.2749C21.515 28.2749 17.875 31.9149 17.875 36.3999C17.875 36.5732 18.0267 36.7249 18.2 36.7249H33.8C33.9733 36.7249 34.125 36.5732 34.125 36.3999C34.125 31.9149 30.485 28.2749 26 28.2749Z" fill="white"/>
</svg>
