<svg width="16" height="17" viewBox="0 0 16 17" fill="none" xmlns="http://www.w3.org/2000/svg">
<path d="M7.99995 11.3867C6.40661 11.3867 5.11328 10.0933 5.11328 8.50001C5.11328 6.90668 6.40661 5.61334 7.99995 5.61334C9.59328 5.61334 10.8866 6.90668 10.8866 8.50001C10.8866 10.0933 9.59328 11.3867 7.99995 11.3867ZM7.99995 6.61334C6.95995 6.61334 6.11328 7.46001 6.11328 8.50001C6.11328 9.54001 6.95995 10.3867 7.99995 10.3867C9.03995 10.3867 9.88661 9.54001 9.88661 8.50001C9.88661 7.46001 9.03995 6.61334 7.99995 6.61334Z" fill="white"/>
<path d="M7.99973 14.5134C5.49306 14.5134 3.12639 13.0467 1.49973 10.5C0.79306 9.40003 0.79306 7.60669 1.49973 6.50003C3.13306 3.95336 5.49973 2.48669 7.99973 2.48669C10.4997 2.48669 12.8664 3.95336 14.4931 6.50003C15.1997 7.60003 15.1997 9.39336 14.4931 10.5C12.8664 13.0467 10.4997 14.5134 7.99973 14.5134ZM7.99973 3.48669C5.84639 3.48669 3.78639 4.78003 2.34639 7.04003C1.84639 7.82003 1.84639 9.18003 2.34639 9.96003C3.78639 12.22 5.84639 13.5134 7.99973 13.5134C10.1531 13.5134 12.2131 12.22 13.6531 9.96003C14.1531 9.18003 14.1531 7.82003 13.6531 7.04003C12.2131 4.78003 10.1531 3.48669 7.99973 3.48669Z" fill="white"/>
</svg>
