<svg width="99" height="130" viewBox="0 0 99 130" fill="none" xmlns="http://www.w3.org/2000/svg">
<path d="M73.1655 108.806C68.023 101.643 63.9995 87.7943 63.5233 80.8698L39.0607 70.304L28.8828 108.806H73.1655Z" fill="#F7F6F5" stroke="black" stroke-width="1.42451"/>
<mask id="mask0_1_5692" style="mask-type:alpha" maskUnits="userSpaceOnUse" x="28" y="70" width="46" height="43">
<path d="M73.1655 112.388C68.023 105.225 63.9995 87.7943 63.5233 80.8698L39.0607 70.304L28.8828 112.388H73.1655Z" fill="#F9C9B6"/>
</mask>
<g mask="url(#mask0_1_5692)">
<g style="mix-blend-mode:multiply">
<ellipse cx="62.4518" cy="69.5877" rx="21.07" ry="19.3407" fill="black"/>
</g>
</g>
<mask id="path-4-inside-1_1_5692" fill="white">
<path fill-rule="evenodd" clip-rule="evenodd" d="M83.3634 47.7655L83.3735 47.8077L83.3836 47.8499L83.4946 48.3149L83.4899 48.316C86.7141 63.0191 77.6221 77.6657 62.9767 81.1884C48.3313 84.7111 33.6151 75.7911 29.8523 61.2176L29.8476 61.2187L29.7265 60.7115L25.0078 40.9394C22.4306 42.8226 18.6374 42.789 16.1186 40.2013L13.778 37.7965C10.1239 34.0425 11.8926 27.7287 16.9615 26.4319L20.2084 25.6013C21.3162 25.3179 22.4001 25.3206 23.4028 25.5506C25.0318 14.7309 33.0057 5.45832 44.2577 2.75186C56.4979 -0.192299 68.7875 5.55487 74.6908 16.0299C75.4219 15.4332 76.3007 14.9758 77.3106 14.7174L80.5574 13.8868C85.6261 12.5901 90.1934 17.2824 88.7787 22.3332L87.8726 25.5685C86.7673 29.5146 82.6583 31.3674 79.1711 30.1991L83.3634 47.7655Z"/>
</mask>
<path fill-rule="evenodd" clip-rule="evenodd" d="M83.3634 47.7655L83.3735 47.8077L83.3836 47.8499L83.4946 48.3149L83.4899 48.316C86.7141 63.0191 77.6221 77.6657 62.9767 81.1884C48.3313 84.7111 33.6151 75.7911 29.8523 61.2176L29.8476 61.2187L29.7265 60.7115L25.0078 40.9394C22.4306 42.8226 18.6374 42.789 16.1186 40.2013L13.778 37.7965C10.1239 34.0425 11.8926 27.7287 16.9615 26.4319L20.2084 25.6013C21.3162 25.3179 22.4001 25.3206 23.4028 25.5506C25.0318 14.7309 33.0057 5.45832 44.2577 2.75186C56.4979 -0.192299 68.7875 5.55487 74.6908 16.0299C75.4219 15.4332 76.3007 14.9758 77.3106 14.7174L80.5574 13.8868C85.6261 12.5901 90.1934 17.2824 88.7787 22.3332L87.8726 25.5685C86.7673 29.5146 82.6583 31.3674 79.1711 30.1991L83.3634 47.7655Z" fill="#F7F6F5"/>
<path d="M83.3735 47.8077L84.7594 47.4781L84.7589 47.4759L83.3735 47.8077ZM83.3634 47.7655L81.9779 48.0962L81.9781 48.0973L83.3634 47.7655ZM83.3836 47.8499L81.9977 48.1795L81.998 48.1806L83.3836 47.8499ZM83.4946 48.3149L83.8277 49.6999L85.2103 49.3674L84.8802 47.9842L83.4946 48.3149ZM83.4899 48.316L83.1568 46.931L81.7995 47.2575L82.0985 48.6212L83.4899 48.316ZM62.9767 81.1884L63.3099 82.5734L62.9767 81.1884ZM29.8523 61.2176L31.2315 60.8615L30.8813 59.5052L29.5193 59.8326L29.8523 61.2176ZM29.8476 61.2187L28.4619 61.5493L28.7931 62.9373L30.1805 62.6038L29.8476 61.2187ZM29.7265 60.7115L31.1122 60.3809L31.1121 60.3808L29.7265 60.7115ZM25.0078 40.9394L26.3934 40.6087L25.8963 38.5258L24.1674 39.7892L25.0078 40.9394ZM16.1186 40.2013L17.1394 39.2077H17.1394L16.1186 40.2013ZM13.778 37.7965L12.7572 38.7901L12.7572 38.7901L13.778 37.7965ZM16.9615 26.4319L16.6085 25.0519H16.6085L16.9615 26.4319ZM20.2084 25.6013L20.5614 26.9814H20.5614L20.2084 25.6013ZM23.4028 25.5506L23.0844 26.939L24.5826 27.2827L24.8115 25.7627L23.4028 25.5506ZM44.2577 2.75186L43.9245 1.36685L44.2577 2.75186ZM74.6908 16.0299L73.4498 16.7293L74.2805 18.2035L75.5915 17.1335L74.6908 16.0299ZM77.3106 14.7174L76.9575 13.3374L77.3106 14.7174ZM80.5574 13.8868L80.2044 12.5067L80.5574 13.8868ZM88.7787 22.3332L90.1505 22.7173L88.7787 22.3332ZM87.8726 25.5685L86.5009 25.1843L86.5009 25.1843L87.8726 25.5685ZM79.1711 30.1991L79.6236 28.8483L77.1897 28.0329L77.7855 30.5297L79.1711 30.1991ZM84.7589 47.4759L84.7488 47.4337L81.9781 48.0973L81.9882 48.1395L84.7589 47.4759ZM84.7694 47.5203L84.7594 47.4781L81.9877 48.1373L81.9977 48.1795L84.7694 47.5203ZM84.8802 47.9842L84.7692 47.5192L81.998 48.1806L82.109 48.6456L84.8802 47.9842ZM83.8231 49.701L83.8277 49.6999L83.1614 46.9299L83.1568 46.931L83.8231 49.701ZM63.3099 82.5734C78.7152 78.868 88.2703 63.4656 84.8814 48.0109L82.0985 48.6212C85.1578 62.5726 76.5291 76.4635 62.6436 79.8034L63.3099 82.5734ZM28.473 61.5737C32.4287 76.8943 47.9027 86.2793 63.3099 82.5734L62.6436 79.8034C48.7599 83.1429 34.8015 74.688 31.2315 60.8615L28.473 61.5737ZM30.1805 62.6038L30.1852 62.6027L29.5193 59.8326L29.5146 59.8337L30.1805 62.6038ZM28.3409 61.0421L28.4619 61.5493L31.2332 60.8882L31.1122 60.3809L28.3409 61.0421ZM23.6222 41.2701L28.3409 61.0422L31.1121 60.3808L26.3934 40.6087L23.6222 41.2701ZM24.1674 39.7892C22.1153 41.2887 19.1233 41.2458 17.1394 39.2077L15.0978 41.1948C18.1515 44.3321 22.7458 44.3565 25.8483 42.0895L24.1674 39.7892ZM17.1394 39.2077L14.7987 36.8029L12.7572 38.7901L15.0978 41.1948L17.1394 39.2077ZM14.7987 36.8029C11.9057 33.8307 13.3107 28.8363 17.3146 27.812L16.6085 25.0519C10.4745 26.6211 8.3421 34.2542 12.7572 38.7901L14.7987 36.8029ZM17.3146 27.812L20.5614 26.9814L19.8553 24.2213L16.6085 25.0519L17.3146 27.812ZM20.5614 26.9814C21.4469 26.7548 22.3005 26.7593 23.0844 26.939L23.7213 24.1622C22.4997 23.8819 21.1855 23.881 19.8553 24.2213L20.5614 26.9814ZM43.9245 1.36685C32.0869 4.21419 23.7061 13.968 21.9942 25.3385L24.8115 25.7627C26.3575 15.4939 33.9245 6.70245 44.5908 4.13686L43.9245 1.36685ZM75.9318 15.3306C69.7256 4.31792 56.8025 -1.73071 43.9245 1.36685L44.5908 4.13686C56.1932 1.34611 67.8495 6.79182 73.4498 16.7293L75.9318 15.3306ZM76.9575 13.3374C75.7456 13.6474 74.6801 14.1999 73.7901 14.9263L75.5915 17.1335C76.1636 16.6666 76.8559 16.3041 77.6636 16.0975L76.9575 13.3374ZM80.2044 12.5067L76.9575 13.3374L77.6636 16.0975L80.9105 15.2669L80.2044 12.5067ZM90.1505 22.7173C91.8586 16.6187 86.3434 10.9362 80.2044 12.5067L80.9105 15.2669C84.9088 14.244 88.5282 17.9461 87.407 21.949L90.1505 22.7173ZM89.2443 25.9527L90.1505 22.7173L87.407 21.949L86.5009 25.1843L89.2443 25.9527ZM78.7186 31.5498C82.9291 32.9604 87.9055 30.7326 89.2443 25.9527L86.5009 25.1843C85.6292 28.2966 82.3876 29.7743 79.6236 28.8483L78.7186 31.5498ZM84.749 47.4348L80.5567 29.8684L77.7855 30.5297L81.9779 48.0962L84.749 47.4348Z" fill="black" mask="url(#path-4-inside-1_1_5692)"/>
<path d="M50.6008 58.585C51.5488 65.0312 62.3557 68.0647 72.2147 60.6705" stroke="black" stroke-width="1.51676"/>
<circle cx="46.13" cy="37.5298" r="4.55028" transform="rotate(-6.27568 46.13 37.5298)" fill="#D2EFF3"/>
<ellipse cx="46.6194" cy="41.0046" rx="3.41271" ry="5.11906" transform="rotate(-6.77646 46.6194 41.0046)" fill="black"/>
<circle cx="70.3146" cy="34.2583" r="4.55028" transform="rotate(-6.27568 70.3146 34.2583)" fill="#D2EFF3"/>
<ellipse cx="70.8874" cy="37.2124" rx="3.41271" ry="5.11906" transform="rotate(-6.27568 70.8874 37.2124)" fill="black"/>
<path d="M36.9497 41.9004L23.8677 44.4125" stroke="black" stroke-width="1.51676" stroke-linecap="round"/>
<path d="M35.4284 35.6212C35.0986 34.3096 35.9789 33.0016 37.3182 32.8134L51.9992 30.7501C53.2435 30.5752 54.3939 31.4422 54.5688 32.6865L56.6797 47.7065C56.8546 48.9508 55.9876 50.1012 54.7434 50.2761L41.6717 52.1132C40.5203 52.275 39.4322 51.5427 39.1486 50.4151L35.4284 35.6212Z" stroke="black" stroke-width="1.51676"/>
<path d="M81.7893 29.1839C81.7449 27.8322 80.5381 26.8175 79.1988 27.0057L64.5178 29.069C63.2735 29.2439 62.4066 30.3944 62.5815 31.6387L64.6924 46.6586C64.8673 47.9029 66.0177 48.7699 67.262 48.595L80.3337 46.7579C81.4851 46.5961 82.3292 45.5922 82.291 44.4301L81.7893 29.1839Z" stroke="black" stroke-width="1.51676"/>
<path d="M55.53 39.8623L63.8722 38.5352" stroke="black" stroke-width="1.51676"/>
<path d="M39.0356 33.9374C41.374 34.8853 47.0366 35.0749 50.9801 28.2495" stroke="black" stroke-width="1.51676" stroke-linecap="round"/>
<path d="M64.4414 25.4056C66.3374 21.0449 71.646 20.097 75.2483 25.4056" stroke="black" stroke-width="1.51676" stroke-linecap="round"/>
<path d="M60.7719 40.9897C60.7719 46.2984 63.4262 50.4695 63.4262 50.4695C63.4262 50.4695 62.099 52.7446 58.3071 51.9863" stroke="#171921" stroke-width="1.51676"/>
<path d="M35.2478 82.6406C35.4457 82.5483 35.724 82.6244 35.858 82.8616C42.4221 94.4817 58.4697 93.5482 63.3807 82.9586C63.5102 82.6793 63.818 82.5855 64.0279 82.6813C77.2769 88.7335 85.115 95.2544 90.0603 104.538C93.1581 110.353 91.9245 116.322 88.2162 120.885C84.4936 125.466 78.2948 128.591 71.5873 128.591H27.0241C20.3058 128.591 14.1288 125.454 10.4567 120.877C6.79984 116.318 5.64168 110.365 8.84245 104.595C14.2094 94.9188 22.4458 88.615 35.2478 82.6406Z" fill="#F6D2F7" stroke="black" stroke-width="1.42575" stroke-linecap="round" stroke-linejoin="round"/>
<path fill-rule="evenodd" clip-rule="evenodd" d="M23.6739 89.7261C26.7378 87.6548 28.5429 86.6774 31.8657 84.9385V106.759H68.3191V85.4121C71.7155 87.1447 73.5048 88.3292 76.5109 90.3722V106.759H76.7541C78.4295 106.759 79.7876 108.117 79.7876 109.793V125.322C79.7876 126.788 78.5993 127.977 77.1333 127.977H21.8228C20.3568 127.977 19.1685 126.788 19.1685 125.322V109.793C19.1685 108.117 20.5266 106.759 22.202 106.759H23.6739V89.7261Z" fill="#323232"/>
<path d="M76.5108 127.649V112.688C76.5108 111.013 75.1527 109.655 73.4773 109.655H25.4786C23.8032 109.655 22.4451 111.013 22.4451 112.688V127.649" stroke="#F6D2F7" stroke-width="0.189595" stroke-linecap="round" stroke-dasharray="1.52 1.52"/>
<line x1="26.3512" y1="106.57" x2="26.3512" y2="89.9887" stroke="#F6D2F7" stroke-width="0.37919" stroke-linecap="round" stroke-dasharray="1.52 1.52"/>
<line x1="73.8636" y1="106.57" x2="73.8636" y2="89.9887" stroke="#F6D2F7" stroke-width="0.37919" stroke-linecap="round" stroke-dasharray="1.52 1.52"/>
<ellipse cx="26.541" cy="109.241" rx="2.45753" ry="2.48197" fill="#F6D2F7"/>
<ellipse cx="73.2341" cy="109.241" rx="2.45753" ry="2.48197" fill="#F6D2F7"/>
<path d="M33.9136 119.617C33.9136 117.314 35.781 115.446 38.0847 115.446H60.4617C62.7653 115.446 64.6328 117.314 64.6328 119.617V127.856H33.9136V119.617Z" fill="#999999"/>
</svg>
