<svg width="98" height="136" viewBox="0 0 98 136" fill="none" xmlns="http://www.w3.org/2000/svg">
<path d="M72.5793 115.815C67.439 108.671 63.4171 94.8583 62.9412 87.952L38.4888 77.4138L28.3152 115.815H72.5793Z" fill="#F7F6F5" stroke="black" stroke-width="1.42451"/>
<mask id="mask0_1_5723" style="mask-type:alpha" maskUnits="userSpaceOnUse" x="28" y="77" width="45" height="43">
<path d="M72.5793 119.388C67.439 112.243 63.4171 94.8583 62.9412 87.952L38.4888 77.4138L28.3152 119.388H72.5793Z" fill="#F9C9B6"/>
</mask>
<g mask="url(#mask0_1_5723)">
<g style="mix-blend-mode:multiply">
<ellipse cx="61.87" cy="76.6994" rx="21.0612" ry="19.29" fill="black"/>
</g>
</g>
<mask id="path-4-inside-1_1_5723" fill="white">
<path fill-rule="evenodd" clip-rule="evenodd" d="M38.7646 0.920709C43.839 -0.374584 48.4116 4.31283 46.9954 9.35812L46.968 9.45551C60.5725 7.87624 73.5211 16.649 76.8765 30.282L76.8769 30.2819L76.8946 30.356L76.9202 30.462L76.9454 30.5682L82.7658 54.903L82.7835 54.9765L82.801 55.0502L82.9044 55.4825L82.8998 55.4836C86.1226 70.1482 77.0345 84.7564 62.3952 88.2699C47.7559 91.7833 33.0459 82.8867 29.2846 68.3513L29.2799 68.3525L29.159 67.8466L23.2524 43.1519L23.2532 43.1517C22.1391 38.3548 22.3475 33.5552 23.642 29.1391C22.0454 29.0489 20.4543 28.3941 19.1859 27.0939L16.85 24.6994C13.1919 20.9494 14.9623 14.6427 20.0367 13.3474L23.2768 12.5203C26.834 11.6123 30.1446 13.6443 31.3184 16.6786C32.105 15.9438 32.937 15.2528 33.8116 14.6105L32.3379 13.0998C28.6797 9.34978 30.4501 3.04311 35.5245 1.7478L38.7646 0.920709Z"/>
</mask>
<path fill-rule="evenodd" clip-rule="evenodd" d="M38.7646 0.920709C43.839 -0.374584 48.4116 4.31283 46.9954 9.35812L46.968 9.45551C60.5725 7.87624 73.5211 16.649 76.8765 30.282L76.8769 30.2819L76.8946 30.356L76.9202 30.462L76.9454 30.5682L82.7658 54.903L82.7835 54.9765L82.801 55.0502L82.9044 55.4825L82.8998 55.4836C86.1226 70.1482 77.0345 84.7564 62.3952 88.2699C47.7559 91.7833 33.0459 82.8867 29.2846 68.3513L29.2799 68.3525L29.159 67.8466L23.2524 43.1519L23.2532 43.1517C22.1391 38.3548 22.3475 33.5552 23.642 29.1391C22.0454 29.0489 20.4543 28.3941 19.1859 27.0939L16.85 24.6994C13.1919 20.9494 14.9623 14.6427 20.0367 13.3474L23.2768 12.5203C26.834 11.6123 30.1446 13.6443 31.3184 16.6786C32.105 15.9438 32.937 15.2528 33.8116 14.6105L32.3379 13.0998C28.6797 9.34978 30.4501 3.04311 35.5245 1.7478L38.7646 0.920709Z" fill="#F7F6F5"/>
<path d="M46.9954 9.35812L48.3669 9.74312L48.3669 9.7431L46.9954 9.35812ZM38.7646 0.920709L38.4123 -0.459539L38.7646 0.920709ZM46.968 9.45551L45.5966 9.07052L45.0225 11.1154L47.1323 10.8705L46.968 9.45551ZM76.8765 30.282L75.4933 30.6225L75.8326 32.0011L77.2123 31.6664L76.8765 30.282ZM76.8769 30.2819L78.2624 29.9506L77.9299 28.5607L76.5411 28.8976L76.8769 30.2819ZM76.8946 30.356L75.5092 30.6873L75.5098 30.69L76.8946 30.356ZM76.9202 30.462L78.3063 30.1334L78.305 30.128L76.9202 30.462ZM76.9454 30.5682L75.5593 30.8969L75.56 30.8996L76.9454 30.5682ZM82.7658 54.903L81.3804 55.2343L81.3808 55.2361L82.7658 54.903ZM82.7835 54.9765L84.1694 54.6471L84.1685 54.6434L82.7835 54.9765ZM82.801 55.0502L81.4151 55.3797L81.4156 55.3816L82.801 55.0502ZM82.9044 55.4825L83.2368 56.8676L84.621 56.5355L84.2898 55.1511L82.9044 55.4825ZM82.8998 55.4836L82.5674 54.0984L81.2086 54.4245L81.5085 55.7893L82.8998 55.4836ZM62.3952 88.2699L62.7277 89.655L62.3952 88.2699ZM29.2846 68.3513L30.6637 67.9945L30.313 66.6391L28.9517 66.9663L29.2846 68.3513ZM29.2799 68.3525L27.8944 68.6836L28.2259 70.0709L29.6128 69.7375L29.2799 68.3525ZM29.159 67.8466L30.5444 67.5155L30.5444 67.5152L29.159 67.8466ZM23.2524 43.1519L22.9209 41.7665L21.5356 42.0979L21.8669 43.4833L23.2524 43.1519ZM23.2532 43.1517L23.5846 44.5372L24.9609 44.2079L24.6407 42.8295L23.2532 43.1517ZM23.642 29.1391L25.009 29.5398L25.5137 27.8181L23.7224 27.7169L23.642 29.1391ZM19.1859 27.0939L18.1662 28.0886H18.1662L19.1859 27.0939ZM16.85 24.6994L17.8697 23.7047H17.8697L16.85 24.6994ZM20.0367 13.3474L19.6844 11.9672L20.0367 13.3474ZM23.2768 12.5203L22.9245 11.1401L23.2768 12.5203ZM31.3184 16.6786L29.9899 17.1926L30.7505 19.1587L32.2909 17.7195L31.3184 16.6786ZM33.8116 14.6105L34.6548 15.7587L35.9755 14.7887L34.8313 13.6158L33.8116 14.6105ZM32.3379 13.0998L31.3182 14.0945L32.3379 13.0998ZM35.5245 1.7478L35.8768 3.12804V3.12804L35.5245 1.7478ZM48.3669 9.7431C50.0789 3.64399 44.5511 -2.02655 38.4123 -0.459539L39.117 2.30096C43.1269 1.27738 46.7443 4.98168 45.6239 8.97314L48.3669 9.7431ZM48.3395 9.84051L48.3669 9.74312L45.6239 8.97312L45.5966 9.07052L48.3395 9.84051ZM78.2598 29.9416C74.7313 15.6055 61.1147 6.37922 46.8038 8.04051L47.1323 10.8705C60.0303 9.37325 72.3109 17.6925 75.4933 30.6225L78.2598 29.9416ZM76.5411 28.8976L76.5407 28.8976L77.2123 31.6664L77.2127 31.6663L76.5411 28.8976ZM78.2801 30.0246L78.2624 29.9506L75.4915 30.6133L75.5092 30.6873L78.2801 30.0246ZM78.305 30.128L78.2794 30.0219L75.5098 30.69L75.5354 30.7961L78.305 30.128ZM78.3315 30.2395L78.3063 30.1334L75.5342 30.7907L75.5593 30.8969L78.3315 30.2395ZM84.1512 54.5716L78.3308 30.2368L75.56 30.8996L81.3804 55.2343L84.1512 54.5716ZM84.1685 54.6434L84.1508 54.5698L81.3808 55.2361L81.3985 55.3097L84.1685 54.6434ZM84.1869 54.7207L84.1694 54.6471L81.3976 55.306L81.4151 55.3797L84.1869 54.7207ZM84.2898 55.1511L84.1864 54.7188L81.4156 55.3816L81.519 55.8138L84.2898 55.1511ZM83.2322 56.8687L83.2368 56.8676L82.572 54.0973L82.5674 54.0984L83.2322 56.8687ZM62.7277 89.655C78.1249 85.9596 87.6798 70.597 84.2911 55.1778L81.5085 55.7893C84.5655 69.6993 75.9441 83.5531 62.0628 86.8847L62.7277 89.655ZM27.9055 68.7082C31.8606 83.9924 47.3296 93.3506 62.7277 89.655L62.0628 86.8847C48.1823 90.216 34.2312 81.781 30.6637 67.9945L27.9055 68.7082ZM29.6128 69.7375L29.6176 69.7364L28.9517 66.9663L28.9469 66.9674L29.6128 69.7375ZM27.7735 68.1777L27.8944 68.6836L30.6653 68.0214L30.5444 67.5155L27.7735 68.1777ZM21.8669 43.4833L27.7735 68.1779L30.5444 67.5152L24.6378 42.8206L21.8669 43.4833ZM22.9217 41.7663L22.9209 41.7665L23.5838 44.5373L23.5846 44.5372L22.9217 41.7663ZM22.275 28.7384C20.9134 33.3835 20.6946 38.4321 21.8656 43.474L24.6407 42.8295C23.5835 38.2775 23.7816 33.7269 25.009 29.5398L22.275 28.7384ZM23.7224 27.7169C22.4665 27.6459 21.2151 27.1341 20.2056 26.0992L18.1662 28.0886C19.6934 29.6542 21.6243 30.4518 23.5616 30.5614L23.7224 27.7169ZM20.2056 26.0992L17.8697 23.7047L15.8304 25.6941L18.1662 28.0886L20.2056 26.0992ZM17.8697 23.7047C14.9764 20.7387 16.3778 15.7516 20.389 14.7277L19.6844 11.9672C13.5468 13.5339 11.4074 21.1601 15.8304 25.6941L17.8697 23.7047ZM20.389 14.7277L23.6292 13.9006L22.9245 11.1401L19.6844 11.9672L20.389 14.7277ZM23.6292 13.9006C26.4308 13.1854 29.0546 14.7749 29.9899 17.1926L32.647 16.1647C31.2346 12.5137 27.2372 10.0392 22.9245 11.1401L23.6292 13.9006ZM32.9684 13.4623C32.0484 14.138 31.1732 14.8649 30.3459 15.6377L32.2909 17.7195C33.0368 17.0227 33.8257 16.3675 34.6548 15.7587L32.9684 13.4623ZM31.3182 14.0945L32.7919 15.6052L34.8313 13.6158L33.3576 12.1051L31.3182 14.0945ZM35.1722 0.367548C29.0346 1.93425 26.8952 9.5605 31.3182 14.0945L33.3576 12.1051C30.4642 9.13907 31.8656 4.15197 35.8768 3.12804L35.1722 0.367548ZM38.4123 -0.459539L35.1722 0.367548L35.8768 3.12804L39.117 2.30096L38.4123 -0.459539Z" fill="black" mask="url(#path-4-inside-1_1_5723)"/>
<path d="M50.8182 70.1354L54.9131 72.7134C55.5123 73.0907 56.2929 73.0031 56.7937 72.5023L59.7367 69.5593C60.1877 69.1083 60.8726 68.9877 61.4506 69.2574L65.0447 70.9347C65.7018 71.2413 66.484 71.04 66.9114 70.4542L69.5861 66.7884" stroke="black" stroke-width="1.51676"/>
<path fill-rule="evenodd" clip-rule="evenodd" d="M41.6255 49.775C41.6688 50.0832 42.0606 50.1519 42.2785 49.9296C43.2133 48.9757 44.6503 48.2748 46.3183 48.0766C47.3023 47.9597 48.2491 48.0317 49.0926 48.2557C49.3784 48.3316 49.6595 48.0903 49.5597 47.8118C48.9282 46.0503 47.1458 44.8924 45.2085 45.1226C42.9556 45.3903 41.3464 47.4336 41.6141 49.6864C41.6176 49.716 41.6214 49.7456 41.6255 49.775Z" fill="#171921"/>
<path fill-rule="evenodd" clip-rule="evenodd" d="M65.9309 45.9832C65.9737 46.2915 66.3654 46.3603 66.5836 46.1383C67.5098 45.1957 68.9314 44.5034 70.5811 44.3074C71.5535 44.1918 72.4892 44.2625 73.3233 44.4831C73.6092 44.5588 73.8902 44.3173 73.7899 44.0391C73.1625 42.2973 71.3985 41.1531 69.4814 41.3809C67.2495 41.6461 65.6552 43.6704 65.9204 45.9022C65.9236 45.9293 65.9271 45.9563 65.9309 45.9832Z" fill="#171921"/>
<circle cx="69.5878" cy="43.4022" r="9.85894" stroke="black" stroke-width="1.51676"/>
<circle cx="44.182" cy="46.8148" r="9.85894" stroke="black" stroke-width="1.51676"/>
<path d="M60.1081 46.0565C60.1081 45.2519 59.7885 44.4803 59.2196 43.9114C58.6507 43.3426 57.8791 43.0229 57.0745 43.0229C56.27 43.0229 55.4984 43.3426 54.9295 43.9114C54.3606 44.4803 54.041 45.2519 54.041 46.0565" stroke="black" stroke-width="1.51676"/>
<path d="M34.5127 47.5732L23.137 49.6588" stroke="black" stroke-width="1.51676"/>
<path d="M65.6067 34.762C67.7554 33.7508 72.8113 32.8281 75.8448 37.2267" stroke="black" stroke-width="1.51676" stroke-linecap="round"/>
<path d="M37.008 44.3581C37.7931 42.1169 40.6793 37.8645 45.9427 38.7846" stroke="black" stroke-width="1.51676" stroke-linecap="round"/>
<path d="M60.0416 49.5066C59.9152 50.9602 60.0416 54.1327 61.5584 55.1944C63.4543 56.5216 61.3688 59.7447 57.5769 58.9863" stroke="#171921" stroke-width="1.51676"/>
<path d="M34.5211 89.6356C34.7184 89.5443 34.9954 89.62 35.1297 89.856C41.6939 101.384 57.7367 100.459 62.6495 89.9531C62.7797 89.6747 63.0864 89.5812 63.2958 89.6761C76.457 95.6398 84.2781 102.061 89.2284 111.168C92.3764 116.959 91.1641 122.924 87.463 127.491C83.747 132.076 77.5405 135.212 70.8282 135.212H26.3248C19.6016 135.212 13.4177 132.066 9.75309 127.484C6.10403 122.923 4.96758 116.974 8.21758 111.228C13.5864 101.736 21.7989 95.525 34.5211 89.6356Z" fill="#FFF9C6" stroke="black" stroke-width="1.42575" stroke-linecap="round" stroke-linejoin="round"/>
<path d="M48.7698 112.191L49.3725 113.094L49.9615 112.182L64.167 90.1896C71.1681 93.4071 74.6732 95.3209 80.8026 100.607V125.687C80.8026 130.947 76.538 135.212 71.2773 135.212H26.2193C20.9587 135.212 16.6941 130.947 16.6941 125.687V100.796C22.8416 95.4985 26.9166 93.234 33.9526 89.9962L48.7698 112.191Z" fill="#323232" stroke="black" stroke-width="1.42575"/>
</svg>
