<svg width="99" height="129" viewBox="0 0 99 129" fill="none" xmlns="http://www.w3.org/2000/svg">
<path d="M72.7746 108.806C67.6179 101.643 63.5832 87.7953 63.1058 80.8712L38.5756 70.3059L28.3696 108.806H72.7746Z" fill="#F7F6F5" stroke="black" stroke-width="1.42451"/>
<mask id="mask0_1_5784" style="mask-type:alpha" maskUnits="userSpaceOnUse" x="28" y="70" width="45" height="43">
<path d="M72.7746 112.388C67.6179 105.225 63.5832 87.7953 63.1058 80.8712L38.5756 70.3059L28.3696 112.388H72.7746Z" fill="#F9C9B6"/>
</mask>
<g mask="url(#mask0_1_5784)">
<g style="mix-blend-mode:multiply">
<ellipse cx="62.0315" cy="69.5896" rx="21.1282" ry="19.3396" fill="black"/>
</g>
</g>
<mask id="path-4-inside-1_1_5784" fill="white">
<path fill-rule="evenodd" clip-rule="evenodd" d="M82.9953 48.1186L83.011 48.1839L83.0266 48.2493L83.1324 48.6912L83.1278 48.6923C86.3608 63.3946 77.2438 78.0404 62.5579 81.5629C47.872 85.0854 33.1152 76.1659 29.342 61.5931L29.3372 61.5943L26.7966 50.9786C24.297 52.2332 21.0774 51.9388 18.8515 49.6584L16.5454 47.2959C14.0703 44.7602 14.0795 41.0552 15.9154 38.522L14.9891 37.573C11.3298 33.8242 13.1007 27.5194 18.1766 26.2245L21.3754 25.4085C21.9239 25.2686 22.4665 25.1985 22.9963 25.1911C24.8742 14.6899 32.7611 5.77515 43.7872 3.13048C55.7702 0.256265 67.8005 5.66578 73.8726 15.671C74.5535 15.1676 75.3505 14.7798 76.2517 14.5499L79.4506 13.7339C84.5265 12.439 89.1005 17.125 87.6839 22.1688L86.9587 24.7507C88.952 26.3644 90.0322 29.0721 89.2403 31.8917L88.3475 35.0703C87.388 38.4863 84.168 40.3312 81.0527 40.0016L82.9953 48.1186Z"/>
</mask>
<path fill-rule="evenodd" clip-rule="evenodd" d="M82.9953 48.1186L83.011 48.1839L83.0266 48.2493L83.1324 48.6912L83.1278 48.6923C86.3608 63.3946 77.2438 78.0404 62.5579 81.5629C47.872 85.0854 33.1152 76.1659 29.342 61.5931L29.3372 61.5943L26.7966 50.9786C24.297 52.2332 21.0774 51.9388 18.8515 49.6584L16.5454 47.2959C14.0703 44.7602 14.0795 41.0552 15.9154 38.522L14.9891 37.573C11.3298 33.8242 13.1007 27.5194 18.1766 26.2245L21.3754 25.4085C21.9239 25.2686 22.4665 25.1985 22.9963 25.1911C24.8742 14.6899 32.7611 5.77515 43.7872 3.13048C55.7702 0.256265 67.8005 5.66578 73.8726 15.671C74.5535 15.1676 75.3505 14.7798 76.2517 14.5499L79.4506 13.7339C84.5265 12.439 89.1005 17.125 87.6839 22.1688L86.9587 24.7507C88.952 26.3644 90.0322 29.0721 89.2403 31.8917L88.3475 35.0703C87.388 38.4863 84.168 40.3312 81.0527 40.0016L82.9953 48.1186Z" fill="#F7F6F5"/>
<path d="M83.011 48.1839L84.3968 47.854L84.3961 47.8508L83.011 48.1839ZM82.9953 48.1186L81.61 48.4502L81.6103 48.4518L82.9953 48.1186ZM83.0266 48.2493L81.6408 48.5792L81.6412 48.5808L83.0266 48.2493ZM83.1324 48.6912L83.4643 50.0764L84.8492 49.7446L84.5177 48.3596L83.1324 48.6912ZM83.1278 48.6923L82.7958 47.307L81.4362 47.6328L81.7365 48.9982L83.1278 48.6923ZM62.5579 81.5629L62.8902 82.9481L62.5579 81.5629ZM29.342 61.5931L30.721 61.2361L30.3703 59.8814L29.0096 60.208L29.342 61.5931ZM29.3372 61.5943L27.9518 61.9258L28.2836 63.3121L29.6696 62.9795L29.3372 61.5943ZM26.7966 50.9786L28.182 50.6471L27.7637 48.8994L26.1576 49.7055L26.7966 50.9786ZM18.8515 49.6584L19.8709 48.6634H19.8709L18.8515 49.6584ZM16.5454 47.2959L15.526 48.2909H15.526L16.5454 47.2959ZM15.9154 38.522L17.0688 39.358L17.7733 38.386L16.9348 37.527L15.9154 38.522ZM14.9891 37.573L13.9697 38.5681H13.9697L14.9891 37.573ZM18.1766 26.2245L18.5287 27.6048H18.5287L18.1766 26.2245ZM21.3754 25.4085L21.0233 24.0282H21.0233L21.3754 25.4085ZM22.9963 25.1911L23.016 26.6155L24.1916 26.5992L24.3985 25.4419L22.9963 25.1911ZM43.7872 3.13048L44.1194 4.5157L43.7872 3.13048ZM73.8726 15.671L72.6548 16.4101L73.4645 17.7442L74.7194 16.8165L73.8726 15.671ZM76.2517 14.5499L75.8996 13.1696L76.2517 14.5499ZM79.4506 13.7339L79.8027 15.1142L79.4506 13.7339ZM87.6839 22.1688L89.0553 22.554V22.554L87.6839 22.1688ZM86.9587 24.7507L85.5873 24.3655L85.3338 25.2681L86.0624 25.8579L86.9587 24.7507ZM89.2403 31.8917L87.8688 31.5065L89.2403 31.8917ZM88.3475 35.0703L86.9761 34.6851L88.3475 35.0703ZM81.0527 40.0016L81.2026 38.585L79.1982 38.3729L79.6673 40.3331L81.0527 40.0016ZM84.3961 47.8508L84.3803 47.7855L81.6103 48.4518L81.626 48.5171L84.3961 47.8508ZM84.4124 47.9194L84.3968 47.854L81.6253 48.5138L81.6408 48.5792L84.4124 47.9194ZM84.5177 48.3596L84.412 47.9177L81.6412 48.5808L81.747 49.0227L84.5177 48.3596ZM83.4597 50.0775L83.4643 50.0764L82.8004 47.3059L82.7958 47.307L83.4597 50.0775ZM62.8902 82.9481C78.3335 79.2439 87.9182 63.844 84.519 48.3863L81.7365 48.9982C84.8034 62.9451 76.154 76.8369 62.2257 80.1777L62.8902 82.9481ZM27.9629 61.9502C31.9302 77.2723 47.4463 86.6524 62.8902 82.9481L62.2257 80.1777C48.2978 83.5184 34.3002 75.0595 30.721 61.2361L27.9629 61.9502ZM29.6696 62.9795L29.6744 62.9783L29.0096 60.208L29.0048 60.2091L29.6696 62.9795ZM25.4112 51.3102L27.9518 61.9258L30.7226 61.2627L28.182 50.6471L25.4112 51.3102ZM17.8321 50.6535C20.5277 53.4151 24.4297 53.7604 27.4356 52.2518L26.1576 49.7055C24.1642 50.706 21.627 50.4626 19.8709 48.6634L17.8321 50.6535ZM15.526 48.2909L17.8321 50.6535L19.8709 48.6634L17.5648 46.3009L15.526 48.2909ZM14.762 37.6861C12.5536 40.7331 12.5265 45.2179 15.526 48.2909L17.5648 46.3009C15.6141 44.3024 15.6054 41.3772 17.0688 39.358L14.762 37.6861ZM13.9697 38.5681L14.896 39.5171L16.9348 37.527L16.0085 36.578L13.9697 38.5681ZM17.8245 24.8442C11.6859 26.4102 9.54462 34.0346 13.9697 38.5681L16.0085 36.578C13.1151 33.6137 14.5154 28.6287 18.5287 27.6048L17.8245 24.8442ZM21.0233 24.0282L17.8245 24.8442L18.5287 27.6048L21.7276 26.7888L21.0233 24.0282ZM22.9765 23.7668C22.3341 23.7757 21.6799 23.8607 21.0233 24.0282L21.7276 26.7888C22.1678 26.6765 22.5989 26.6213 23.016 26.6155L22.9765 23.7668ZM43.4549 1.74526C31.8582 4.52682 23.5678 13.9029 21.594 24.9404L24.3985 25.4419C26.1805 15.477 33.6641 7.02349 44.1194 4.5157L43.4549 1.74526ZM75.0904 14.9319C68.7067 4.41333 56.0582 -1.27772 43.4549 1.74526L44.1194 4.5157C55.4822 1.79025 66.8943 6.91822 72.6548 16.4101L75.0904 14.9319ZM74.7194 16.8165C75.2527 16.4223 75.8818 16.1144 76.6038 15.9302L75.8996 13.1696C74.8193 13.4452 73.8544 13.913 73.0258 14.5255L74.7194 16.8165ZM76.6038 15.9302L79.8027 15.1142L79.0984 12.3536L75.8996 13.1696L76.6038 15.9302ZM79.8027 15.1142C83.8158 14.0904 87.4327 17.7953 86.3124 21.7836L89.0553 22.554C90.7684 16.4548 85.2372 10.7875 79.0984 12.3536L79.8027 15.1142ZM86.3124 21.7836L85.5873 24.3655L88.3301 25.1359L89.0553 22.554L86.3124 21.7836ZM90.6117 32.2769C91.57 28.865 90.2534 25.5851 87.855 23.6435L86.0624 25.8579C87.6507 27.1437 88.4944 29.2793 87.8688 31.5065L90.6117 32.2769ZM89.7189 35.4555L90.6117 32.2769L87.8688 31.5065L86.9761 34.6851L89.7189 35.4555ZM80.9028 41.4182C84.6504 41.8147 88.5562 39.5952 89.7189 35.4555L86.9761 34.6851C86.2199 37.3773 83.6856 38.8477 81.2026 38.585L80.9028 41.4182ZM84.3807 47.7871L82.4381 39.67L79.6673 40.3331L81.61 48.4502L84.3807 47.7871Z" fill="black" mask="url(#path-4-inside-1_1_5784)"/>
<path d="M74.7288 57.0037C74.6643 56.2198 73.8627 55.7832 73.1834 56.0509C71.5799 56.6827 66.2753 58.6922 62.5349 59.2068C58.4311 59.7713 52.2163 59.0857 50.4174 58.8623C49.6858 58.7715 49.0337 59.4002 49.16 60.1642C49.4071 61.6593 49.916 63.1005 50.6647 64.421C51.4998 65.8938 52.6168 67.1877 53.9519 68.2288C55.287 69.27 56.8141 70.0379 58.446 70.4889C60.0779 70.9398 61.7827 71.0649 63.4629 70.857C65.1432 70.6491 66.766 70.1123 68.2388 69.2773C69.7116 68.4422 71.0055 67.3252 72.0466 65.9901C73.0877 64.655 73.8557 63.1279 74.3066 61.496C74.7107 60.0337 74.8532 58.513 74.7288 57.0037Z" fill="#171921" stroke="#171921" stroke-width="1.51676"/>
<mask id="mask1_1_5784" style="mask-type:alpha" maskUnits="userSpaceOnUse" x="49" y="56" width="26" height="15">
<path d="M73.9222 56.5722C74.1178 58.1537 74.0001 59.7581 73.5757 61.294C73.1512 62.8299 72.4285 64.2672 71.4486 65.5238C70.4687 66.7804 69.2509 67.8316 67.8648 68.6176C66.4786 69.4035 64.9512 69.9087 63.3698 70.1044C61.7884 70.3 60.1839 70.1823 58.648 69.7579C57.1121 69.3335 55.6748 68.6107 54.4182 67.6308C53.1617 66.6509 52.1104 65.4331 51.3245 64.047C50.5385 62.6608 50.0333 61.1334 49.8376 59.552L73.9222 56.5722Z" fill="#171921"/>
</mask>
<g mask="url(#mask1_1_5784)">
<circle cx="63.5812" cy="71.7862" r="8.15258" transform="rotate(-7.05286 63.5812 71.7862)" fill="#FC909F"/>
</g>
<path fill-rule="evenodd" clip-rule="evenodd" d="M42.0564 42.775C42.0998 43.0832 42.4915 43.1519 42.7094 42.9296C43.6442 41.9757 45.0812 41.2748 46.7493 41.0766C47.7332 40.9597 48.68 41.0317 49.5235 41.2557C49.8093 41.3316 50.0904 41.0903 49.9906 40.8118C49.3591 39.0503 47.5767 37.8924 45.6394 38.1226C43.3865 38.3903 41.7773 40.4336 42.045 42.6864C42.0485 42.716 42.0523 42.7456 42.0564 42.775Z" fill="#171921"/>
<path fill-rule="evenodd" clip-rule="evenodd" d="M66.3618 38.9832C66.4046 39.2915 66.7964 39.3603 67.0145 39.1383C67.9407 38.1957 69.3623 37.5034 71.012 37.3074C71.9844 37.1918 72.9201 37.2625 73.7542 37.4831C74.0401 37.5588 74.3211 37.3173 74.2208 37.0391C73.5934 35.2973 71.8294 34.1531 69.9123 34.3809C67.6804 34.6461 66.0861 36.6704 66.3513 38.9022C66.3546 38.9293 66.358 38.9563 66.3618 38.9832Z" fill="#171921"/>
<circle cx="70.0197" cy="36.4022" r="9.85894" stroke="black" stroke-width="1.51676"/>
<circle cx="44.6139" cy="39.8148" r="9.85894" stroke="black" stroke-width="1.51676"/>
<path d="M60.5399 39.0565C60.5399 38.2519 60.2203 37.4803 59.6514 36.9114C59.0825 36.3426 58.311 36.0229 57.5064 36.0229C56.7019 36.0229 55.9303 36.3426 55.3614 36.9114C54.7925 37.4803 54.4729 38.2519 54.4729 39.0565" stroke="black" stroke-width="1.51676"/>
<path d="M34.9445 40.5732L23.5688 42.6588" stroke="black" stroke-width="1.51676"/>
<path d="M38.7356 33.9371C41.0739 34.8851 46.7365 35.0747 50.6801 28.2493" stroke="black" stroke-width="1.51676" stroke-linecap="round"/>
<path d="M64.1414 25.4055C66.1005 27.4279 71.0047 30.2591 74.9483 25.4055" stroke="black" stroke-width="1.51676" stroke-linecap="round"/>
<path d="M42.5838 33.9213L41.9587 32.6101" stroke="black" stroke-width="1.51676" stroke-linecap="round"/>
<path d="M72.5668 27.4698L72.8628 25.0261" stroke="black" stroke-width="1.51676" stroke-linecap="round"/>
<path d="M45.7876 32.5395L45.1819 31.4724" stroke="black" stroke-width="1.51676" stroke-linecap="round"/>
<path d="M69.5039 27.3086L69.6396 25.4055" stroke="black" stroke-width="1.51676" stroke-linecap="round"/>
<path d="M48.4709 30.4109L48.0259 28.8181" stroke="black" stroke-width="1.51676" stroke-linecap="round"/>
<path d="M66.414 26.9342L66.414 24.647" stroke="black" stroke-width="1.51676" stroke-linecap="round"/>
<path d="M58.9495 44.1149C61.0145 43.6445 64.4012 44.3502 63.6578 48.1129C62.9971 51.457 59.4451 51.6403 58.4539 50.6996" stroke="black" stroke-width="1.51676"/>
<path d="M34.9517 82.6356C35.149 82.5443 35.426 82.62 35.5604 82.856C42.1246 94.3838 58.1674 93.4593 63.0802 82.9531C63.2104 82.6747 63.517 82.5812 63.7264 82.6761C76.8877 88.6398 84.7087 95.0613 89.6591 104.168C92.8071 109.959 91.5948 115.924 87.8936 120.491C84.1777 125.076 77.9711 128.212 71.2589 128.212H26.7554C20.0323 128.212 13.8484 125.066 10.1838 120.484C6.53469 115.923 5.39824 109.974 8.64825 104.228C14.0171 94.7361 22.2295 88.525 34.9517 82.6356Z" fill="#E6D2FF" stroke="black" stroke-width="1.42575" stroke-linecap="round" stroke-linejoin="round"/>
<path d="M44.6736 91.1697H53.6845V128.104H44.6736V91.1697Z" fill="#323232"/>
<ellipse cx="49.1792" cy="105.943" rx="2.45753" ry="2.46227" fill="#999999"/>
<ellipse cx="49.1792" cy="116.613" rx="2.45753" ry="2.46227" fill="#999999"/>
<rect x="61.4668" y="108.406" width="22.5274" height="4.92454" rx="2.46227" fill="#323232"/>
</svg>
