<svg width="99" height="135" viewBox="0 0 99 135" fill="none" xmlns="http://www.w3.org/2000/svg">
<path d="M73.3251 113.825C68.1859 106.699 64.1649 92.923 63.689 86.0349L39.242 75.5244L29.0706 113.825H73.3251Z" fill="#F7F6F5" stroke="black" stroke-width="1.42451"/>
<mask id="mask0_1_5662" style="mask-type:alpha" maskUnits="userSpaceOnUse" x="29" y="75" width="45" height="43">
<path d="M73.3251 117.388C68.1859 110.262 64.1649 92.923 63.689 86.0349L39.242 75.5244L29.0706 117.388H73.3251Z" fill="#F9C9B6"/>
</mask>
<g mask="url(#mask0_1_5662)">
<g style="mix-blend-mode:multiply">
<ellipse cx="62.6181" cy="74.8118" rx="21.0566" ry="19.2392" fill="black"/>
</g>
</g>
<mask id="path-4-inside-1_1_5662" fill="white">
<path fill-rule="evenodd" clip-rule="evenodd" d="M70.9463 6.14334C70.1587 1.1971 64.3096 -1.04069 60.4125 2.11327L57.0494 4.83504C56.0095 5.67664 55.3165 6.73382 54.9481 7.86576C51.5448 7.35454 47.9883 7.4759 44.4359 8.32643C40.9706 9.1561 37.8164 10.6061 35.0631 12.5302C34.2579 11.8102 33.2487 11.2753 32.0679 11.0251L27.8329 10.1276C22.9272 9.08797 18.7384 13.743 20.291 18.509L21.6299 22.6191C22.1865 24.3276 23.3314 25.5914 24.7259 26.3382C23.1454 31.0233 22.8075 36.1894 24.0095 41.3523L24.0087 41.3525L29.914 65.9822L30.0349 66.4867L30.0396 66.4856C33.8001 80.9827 48.5069 89.8559 63.1431 86.3517C77.7792 82.8475 86.8654 68.2777 83.6432 53.6517L83.6478 53.6506L83.5414 53.2066L83.5269 53.146L83.5123 53.0855L77.6913 28.8066L77.665 28.696L77.6382 28.5854L77.6217 28.5164L77.6213 28.5164C76.3612 23.4093 73.7481 18.986 70.2553 15.5368C71.36 14.1835 71.9387 12.3764 71.6259 10.4118L70.9463 6.14334Z"/>
</mask>
<path fill-rule="evenodd" clip-rule="evenodd" d="M70.9463 6.14334C70.1587 1.1971 64.3096 -1.04069 60.4125 2.11327L57.0494 4.83504C56.0095 5.67664 55.3165 6.73382 54.9481 7.86576C51.5448 7.35454 47.9883 7.4759 44.4359 8.32643C40.9706 9.1561 37.8164 10.6061 35.0631 12.5302C34.2579 11.8102 33.2487 11.2753 32.0679 11.0251L27.8329 10.1276C22.9272 9.08797 18.7384 13.743 20.291 18.509L21.6299 22.6191C22.1865 24.3276 23.3314 25.5914 24.7259 26.3382C23.1454 31.0233 22.8075 36.1894 24.0095 41.3523L24.0087 41.3525L29.914 65.9822L30.0349 66.4867L30.0396 66.4856C33.8001 80.9827 48.5069 89.8559 63.1431 86.3517C77.7792 82.8475 86.8654 68.2777 83.6432 53.6517L83.6478 53.6506L83.5414 53.2066L83.5269 53.146L83.5123 53.0855L77.6913 28.8066L77.665 28.696L77.6382 28.5854L77.6217 28.5164L77.6213 28.5164C76.3612 23.4093 73.7481 18.986 70.2553 15.5368C71.36 14.1835 71.9387 12.3764 71.6259 10.4118L70.9463 6.14334Z" fill="#F7F6F5"/>
<path d="M60.4125 2.11327L59.5163 1.00596V1.00596L60.4125 2.11327ZM70.9463 6.14334L69.5395 6.36732V6.36732L70.9463 6.14334ZM57.0494 4.83504L57.9456 5.94235V5.94235L57.0494 4.83504ZM54.9481 7.86576L54.7364 9.27446L55.9293 9.45365L56.3026 8.30663L54.9481 7.86576ZM44.4359 8.32643L44.1042 6.94107L44.4359 8.32643ZM35.0631 12.5302L34.1135 13.5921L34.9544 14.344L35.879 13.6979L35.0631 12.5302ZM32.0679 11.0251L31.7726 12.4186H31.7726L32.0679 11.0251ZM27.8329 10.1276L28.1282 8.73403L27.8329 10.1276ZM20.291 18.509L18.9365 18.9502L20.291 18.509ZM21.6299 22.6191L22.9844 22.1778L21.6299 22.6191ZM24.7259 26.3382L26.0756 26.7936L26.4609 25.6515L25.3984 25.0825L24.7259 26.3382ZM24.0095 41.3523L24.3418 42.7375L25.7178 42.4075L25.3969 41.0293L24.0095 41.3523ZM24.0087 41.3525L23.6765 39.9673L22.2914 40.2995L22.6235 41.6846L24.0087 41.3525ZM29.914 65.9822L31.2993 65.6502L31.2993 65.6501L29.914 65.9822ZM30.0349 66.4867L28.6496 66.8187L28.9813 68.2029L30.3658 67.8723L30.0349 66.4867ZM30.0396 66.4856L31.4185 66.1279L31.0677 64.7755L29.7088 65.1001L30.0396 66.4856ZM63.1431 86.3517L63.4748 87.7371L63.1431 86.3517ZM83.6432 53.6517L83.3118 52.2663L81.9511 52.5918L82.2521 53.9581L83.6432 53.6517ZM83.6478 53.6506L83.9792 55.036L85.3654 54.7044L85.0331 53.3185L83.6478 53.6506ZM83.5414 53.2066L82.1558 53.5373L82.1561 53.5388L83.5414 53.2066ZM83.5269 53.146L84.9125 52.8154L84.9118 52.8124L83.5269 53.146ZM83.5123 53.0855L82.1271 53.4176L82.1275 53.4191L83.5123 53.0855ZM77.6913 28.8066L76.3053 29.136L76.306 29.1388L77.6913 28.8066ZM77.665 28.696L79.0509 28.3666L79.0495 28.361L77.665 28.696ZM77.6382 28.5854L76.253 28.9175L76.2536 28.9203L77.6382 28.5854ZM77.6217 28.5164L79.0069 28.1842L78.6748 26.7992L77.2898 27.131L77.6217 28.5164ZM77.6213 28.5164L76.2383 28.8577L76.5772 30.2314L77.9532 29.9017L77.6213 28.5164ZM70.2553 15.5368L69.1518 14.636L68.3323 15.6399L69.2544 16.5504L70.2553 15.5368ZM71.6259 10.4118L73.0326 10.1878V10.1878L71.6259 10.4118ZM61.3087 3.22058C64.3564 0.753997 68.9248 2.50654 69.5395 6.36732L72.353 5.91935C71.3927 -0.112343 64.2628 -2.83538 59.5163 1.00596L61.3087 3.22058ZM57.9456 5.94235L61.3087 3.22058L59.5163 1.00596L56.1533 3.72773L57.9456 5.94235ZM56.3026 8.30663C56.5876 7.43094 57.1241 6.60715 57.9456 5.94235L56.1533 3.72772C54.8949 4.74614 54.0453 6.03669 53.5935 7.42489L56.3026 8.30663ZM44.7676 9.71178C48.1391 8.90457 51.5111 8.78995 54.7364 9.27446L55.1597 6.45706C51.5786 5.91912 47.8375 6.04723 44.1042 6.94107L44.7676 9.71178ZM35.879 13.6979C38.4884 11.8743 41.4787 10.4992 44.7676 9.71178L44.1042 6.94107C40.4625 7.81299 37.1444 9.33779 34.2471 11.3626L35.879 13.6979ZM31.7726 12.4186C32.7063 12.6165 33.4908 13.0353 34.1135 13.5921L36.0126 11.4683C35.0249 10.5851 33.791 9.9341 32.3632 9.63151L31.7726 12.4186ZM27.5375 11.5211L31.7726 12.4186L32.3632 9.63151L28.1282 8.73403L27.5375 11.5211ZM21.6454 18.0677C20.433 14.3459 23.7033 10.7086 27.5375 11.5211L28.1282 8.73403C22.151 7.46735 17.0438 13.1401 18.9365 18.9502L21.6454 18.0677ZM22.9844 22.1778L21.6454 18.0677L18.9365 18.9502L20.2755 23.0603L22.9844 22.1778ZM25.3984 25.0825C24.313 24.5012 23.4221 23.5215 22.9844 22.1778L20.2755 23.0603C20.9509 25.1338 22.3498 26.6816 24.0533 27.594L25.3984 25.0825ZM25.3969 41.0293C24.2567 36.1317 24.5773 31.235 26.0756 26.7936L23.3761 25.8829C21.7134 30.8115 21.3583 36.2471 22.6221 41.6753L25.3969 41.0293ZM24.341 42.7377L24.3418 42.7375L23.6773 39.9671L23.6765 39.9673L24.341 42.7377ZM31.2993 65.6501L25.394 41.0204L22.6235 41.6846L28.5288 66.3143L31.2993 65.6501ZM31.4202 66.1548L31.2993 65.6502L28.5287 66.3141L28.6496 66.8187L31.4202 66.1548ZM29.7088 65.1001L29.704 65.1012L30.3658 67.8723L30.3705 67.8711L29.7088 65.1001ZM62.8114 84.9664C48.9308 88.2897 34.9842 79.8742 31.4185 66.1279L28.6608 66.8433C32.616 82.0912 48.083 91.4222 63.4748 87.7371L62.8114 84.9664ZM82.2521 53.9581C85.3073 67.8263 76.6916 81.6431 62.8114 84.9664L63.4748 87.7371C78.8668 84.0519 88.4235 68.7291 85.0344 53.3452L82.2521 53.9581ZM83.3164 52.2652L83.3118 52.2663L83.9746 55.0371L83.9792 55.036L83.3164 52.2652ZM82.1561 53.5388L82.2626 53.9827L85.0331 53.3185L84.9266 52.8745L82.1561 53.5388ZM82.1413 53.4766L82.1558 53.5373L84.927 52.876L84.9125 52.8154L82.1413 53.4766ZM82.1275 53.4191L82.1421 53.4797L84.9118 52.8124L84.8972 52.7518L82.1275 53.4191ZM76.306 29.1388L82.1271 53.4176L84.8976 52.7533L79.0765 28.4745L76.306 29.1388ZM76.279 29.0253L76.3053 29.136L79.0772 28.4773L79.0509 28.3666L76.279 29.0253ZM76.2536 28.9203L76.2804 29.0309L79.0495 28.361L79.0228 28.2505L76.2536 28.9203ZM76.2364 28.8485L76.253 28.9175L79.0235 28.2533L79.0069 28.1842L76.2364 28.8485ZM77.9532 29.9017L77.9535 29.9017L77.2898 27.131L77.2894 27.1311L77.9532 29.9017ZM69.2544 16.5504C72.5657 19.8203 75.0429 24.0129 76.2383 28.8577L79.0043 28.1752C77.6795 22.8056 74.9305 18.1516 71.2562 14.5232L69.2544 16.5504ZM70.2191 10.6358C70.4645 12.1775 70.014 13.5798 69.1518 14.636L71.3588 16.4376C72.7059 14.7873 73.4128 12.5753 73.0326 10.1878L70.2191 10.6358ZM69.5395 6.36732L70.2191 10.6358L73.0326 10.1878L72.353 5.91935L69.5395 6.36732Z" fill="black" mask="url(#path-4-inside-1_1_5662)"/>
<path d="M50.8042 63.585C51.7522 70.0312 62.5591 73.0647 72.418 65.6705" stroke="black" stroke-width="1.51676"/>
<circle cx="46.3339" cy="42.5298" r="4.55028" transform="rotate(-6.27568 46.3339 42.5298)" fill="#D2EFF3"/>
<ellipse cx="46.8232" cy="46.0046" rx="3.41271" ry="5.11906" transform="rotate(-6.77646 46.8232 46.0046)" fill="black"/>
<circle cx="70.5185" cy="39.2583" r="4.55028" transform="rotate(-6.27568 70.5185 39.2583)" fill="#D2EFF3"/>
<ellipse cx="71.0912" cy="42.2124" rx="3.41271" ry="5.11906" transform="rotate(-6.27568 71.0912 42.2124)" fill="black"/>
<path d="M37.1538 46.9006L24.0718 49.4128" stroke="black" stroke-width="1.51676" stroke-linecap="round"/>
<path d="M35.6325 40.6215C35.3027 39.3099 36.183 38.0019 37.5223 37.8136L52.2033 35.7504C53.4476 35.5755 54.598 36.4424 54.7729 37.6867L56.8838 52.7067C57.0587 53.951 56.1918 55.1015 54.9475 55.2763L41.8758 57.1134C40.7244 57.2753 39.6363 56.5429 39.3527 55.4153L35.6325 40.6215Z" stroke="black" stroke-width="1.51676"/>
<path d="M81.9934 34.1842C81.949 32.8325 80.7422 31.8178 79.4029 32.006L64.7219 34.0693C63.4776 34.2441 62.6107 35.3946 62.7856 36.6389L64.8965 51.6589C65.0714 52.9032 66.2218 53.7701 67.4661 53.5952L80.5378 51.7581C81.6892 51.5963 82.5333 50.5924 82.4951 49.4303L81.9934 34.1842Z" stroke="black" stroke-width="1.51676"/>
<path d="M55.7341 44.8626L64.0763 43.5354" stroke="black" stroke-width="1.51676"/>
<path d="M66.5403 32.762C68.689 31.7508 73.7449 30.8281 76.7784 35.2267" stroke="black" stroke-width="1.51676" stroke-linecap="round"/>
<path d="M37.9416 42.3581C38.7267 40.1169 41.6129 35.8645 46.8763 36.7846" stroke="black" stroke-width="1.51676" stroke-linecap="round"/>
<path d="M60.9762 45.9897C60.9762 51.2984 63.6305 55.4695 63.6305 55.4695C63.6305 55.4695 62.3034 57.7446 58.5115 56.9863" stroke="#171921" stroke-width="1.51676"/>
<path d="M35.4519 87.6406C35.6498 87.5483 35.9281 87.6244 36.0621 87.8616C42.6262 99.4817 58.6738 98.5482 63.5848 87.9586C63.7143 87.6793 64.0221 87.5855 64.232 87.6813C77.481 93.7335 85.3191 100.254 90.2644 109.538C93.3622 115.353 92.1286 121.322 88.4203 125.885C84.6977 130.466 78.4989 133.591 71.7914 133.591H27.2282C20.5099 133.591 14.3329 130.454 10.6608 125.877C7.00394 121.318 5.84578 115.365 9.04655 109.595C14.4135 99.9188 22.6499 93.615 35.4519 87.6406Z" fill="#FFD6D6" stroke="black" stroke-width="1.42575" stroke-linecap="round" stroke-linejoin="round"/>
<path d="M35.7559 88.0474C35.7559 88.0474 24.0162 101.698 34.2559 107.283C44.4956 112.867 50.2963 96.3206 50.2963 96.3206" stroke="black" stroke-width="1.42575" stroke-linecap="round" stroke-linejoin="round"/>
<path d="M64.5654 89.0815C64.5654 89.0815 76.3051 102.732 66.0654 108.317C55.8257 113.901 50.025 97.3548 50.025 97.3548" stroke="black" stroke-width="1.42575" stroke-linecap="round" stroke-linejoin="round"/>
</svg>
