<svg width="98" height="133" viewBox="0 0 98 133" fill="none" xmlns="http://www.w3.org/2000/svg">
<path d="M72.7159 112.818C67.5778 105.678 63.5576 91.8745 63.0819 84.9727L38.64 74.4414L28.4707 112.818H72.7159Z" fill="#F7F6F5" stroke="black" stroke-width="1.42451"/>
<mask id="mask0_1_5676" style="mask-type:alpha" maskUnits="userSpaceOnUse" x="28" y="74" width="45" height="43">
<path d="M72.7159 116.388C67.5778 109.248 63.5576 91.8745 63.0819 84.9727L38.64 74.4414L28.4707 116.388H72.7159Z" fill="#F9C9B6"/>
</mask>
<g mask="url(#mask0_1_5676)">
<g style="mix-blend-mode:multiply">
<ellipse cx="62.0111" cy="73.7276" rx="21.0522" ry="19.2774" fill="black"/>
</g>
</g>
<mask id="path-4-inside-1_1_5676" fill="white">
<path fill-rule="evenodd" clip-rule="evenodd" d="M67.8066 1.12284C65.5194 -0.661218 62.1793 0.953614 62.1552 3.85514L62.1222 7.82437C62.12 8.09581 62.0863 8.3629 62.0236 8.62106C56.5469 6.02651 50.1833 5.21457 43.8329 6.73832C37.3539 8.29294 31.9627 12.0212 28.2458 16.9655L26.9774 14.3941C25.6938 11.792 21.9834 11.792 20.6998 14.3941L18.9444 17.9527C18.4347 18.9859 17.4492 19.7021 16.3091 19.8679L12.381 20.4389C9.5109 20.8562 8.36461 24.3831 10.441 26.408L13.2856 29.1821C14.1099 29.9861 14.4861 31.1441 14.2915 32.2791L13.6203 36.1945C13.1302 39.0537 16.1316 41.2338 18.6991 39.8833L22.2094 38.037C22.465 37.9025 22.7331 37.8018 23.0075 37.7347C23.1144 38.4323 23.2486 39.131 23.4109 39.8296L23.4102 39.8298L23.4534 40.0098L29.3035 64.4636L29.3141 64.5083L29.3249 64.553L29.4351 65.0138L29.4397 65.0127C33.1994 79.5386 47.9031 88.4294 62.5362 84.9182C77.1693 81.4071 86.2535 66.8084 83.0321 52.1534L83.0368 52.1522L82.9158 51.6467L77.0696 27.2097L77.055 27.1482L77.0402 27.0868L77.0118 26.9682L77.0113 26.9683C76.6878 25.6541 76.275 24.385 75.781 23.1661C76.0877 23.0911 76.4066 23.0572 76.7298 23.0682L80.6945 23.2026C83.5933 23.3009 85.3471 20.0314 83.6622 17.6701L81.3555 14.4375C80.6866 13.5001 80.5216 12.2934 80.9143 11.2105L82.2686 7.47574C83.2576 4.74847 80.6915 2.07128 77.9259 2.94496L74.1409 4.14068C73.0425 4.48769 71.8438 4.2718 70.9355 3.56339L67.8066 1.12284Z"/>
</mask>
<path fill-rule="evenodd" clip-rule="evenodd" d="M67.8066 1.12284C65.5194 -0.661218 62.1793 0.953614 62.1552 3.85514L62.1222 7.82437C62.12 8.09581 62.0863 8.3629 62.0236 8.62106C56.5469 6.02651 50.1833 5.21457 43.8329 6.73832C37.3539 8.29294 31.9627 12.0212 28.2458 16.9655L26.9774 14.3941C25.6938 11.792 21.9834 11.792 20.6998 14.3941L18.9444 17.9527C18.4347 18.9859 17.4492 19.7021 16.3091 19.8679L12.381 20.4389C9.5109 20.8562 8.36461 24.3831 10.441 26.408L13.2856 29.1821C14.1099 29.9861 14.4861 31.1441 14.2915 32.2791L13.6203 36.1945C13.1302 39.0537 16.1316 41.2338 18.6991 39.8833L22.2094 38.037C22.465 37.9025 22.7331 37.8018 23.0075 37.7347C23.1144 38.4323 23.2486 39.131 23.4109 39.8296L23.4102 39.8298L23.4534 40.0098L29.3035 64.4636L29.3141 64.5083L29.3249 64.553L29.4351 65.0138L29.4397 65.0127C33.1994 79.5386 47.9031 88.4294 62.5362 84.9182C77.1693 81.4071 86.2535 66.8084 83.0321 52.1534L83.0368 52.1522L82.9158 51.6467L77.0696 27.2097L77.055 27.1482L77.0402 27.0868L77.0118 26.9682L77.0113 26.9683C76.6878 25.6541 76.275 24.385 75.781 23.1661C76.0877 23.0911 76.4066 23.0572 76.7298 23.0682L80.6945 23.2026C83.5933 23.3009 85.3471 20.0314 83.6622 17.6701L81.3555 14.4375C80.6866 13.5001 80.5216 12.2934 80.9143 11.2105L82.2686 7.47574C83.2576 4.74847 80.6915 2.07128 77.9259 2.94496L74.1409 4.14068C73.0425 4.48769 71.8438 4.2718 70.9355 3.56339L67.8066 1.12284Z" fill="#F7F6F5"/>
<path d="M62.1552 3.85514L63.5796 3.86698V3.86697L62.1552 3.85514ZM67.8066 1.12284L68.6827 -0.000390649V-0.000391096L67.8066 1.12284ZM62.1222 7.82437L60.6978 7.81254V7.81254L62.1222 7.82437ZM62.0236 8.62106L61.4138 9.90841L62.9952 10.6576L63.408 8.95702L62.0236 8.62106ZM43.8329 6.73832L43.5006 5.35313L43.8329 6.73832ZM28.2458 16.9655L26.9683 17.5957L27.9928 19.6726L29.3845 17.8215L28.2458 16.9655ZM26.9774 14.3941L25.6998 15.0243V15.0243L26.9774 14.3941ZM20.6998 14.3941L19.4223 13.7639L20.6998 14.3941ZM18.9444 17.9527L20.2219 18.5829H20.2219L18.9444 17.9527ZM16.3091 19.8679L16.5141 21.2776L16.5141 21.2776L16.3091 19.8679ZM12.381 20.4389L12.1761 19.0292H12.1761L12.381 20.4389ZM10.441 26.408L11.4356 25.3882L10.441 26.408ZM13.2856 29.1821L14.2801 28.1623L13.2856 29.1821ZM14.2915 32.2791L15.6956 32.5198L14.2915 32.2791ZM13.6203 36.1945L12.2163 35.9538L13.6203 36.1945ZM18.6991 39.8833L19.3623 41.1441H19.3623L18.6991 39.8833ZM22.2094 38.037L21.5462 36.7763H21.5462L22.2094 38.037ZM23.0075 37.7347L24.4156 37.519L24.18 35.9817L22.6693 36.3509L23.0075 37.7347ZM23.4109 39.8296L23.7456 41.2143L25.1179 40.8825L24.7984 39.5073L23.4109 39.8296ZM23.4102 39.8298L23.0755 38.4452L21.6936 38.7792L22.0249 40.1618L23.4102 39.8298ZM23.4534 40.0098L24.8388 39.6784L24.8386 39.6778L23.4534 40.0098ZM29.3035 64.4636L30.6892 64.1333L30.6889 64.1321L29.3035 64.4636ZM29.3141 64.5083L27.9285 64.8386L27.929 64.8409L29.3141 64.5083ZM29.3249 64.553L30.7103 64.2216L30.71 64.2204L29.3249 64.553ZM29.4351 65.0138L28.0497 65.3453L28.3812 66.7309L29.7667 66.3992L29.4351 65.0138ZM29.4397 65.0127L30.8188 64.6558L30.4683 63.3018L29.1081 63.6274L29.4397 65.0127ZM62.5362 84.9182L62.2038 83.533H62.2038L62.5362 84.9182ZM83.0321 52.1534L82.6998 50.7682L81.3407 51.0941L81.6408 52.4592L83.0321 52.1534ZM83.0368 52.1522L83.369 53.5375L84.7535 53.2054L84.4221 51.8207L83.0368 52.1522ZM82.9158 51.6467L81.5304 51.9782L81.5304 51.9783L82.9158 51.6467ZM77.0696 27.2097L75.6838 27.5396L75.6842 27.5411L77.0696 27.2097ZM77.055 27.1482L78.4408 26.8183L78.44 26.8153L77.055 27.1482ZM77.0402 27.0868L75.6548 27.4183L75.6552 27.4197L77.0402 27.0868ZM77.0118 26.9682L78.3972 26.6367L78.0647 25.2469L76.6759 25.5839L77.0118 26.9682ZM77.0113 26.9683L75.6281 27.3088L75.9675 28.6874L77.3472 28.3527L77.0113 26.9683ZM75.781 23.1661L75.4429 21.7823L73.8417 22.1735L74.4608 23.7011L75.781 23.1661ZM76.7298 23.0682L76.7781 21.6445H76.7781L76.7298 23.0682ZM80.6945 23.2026L80.7428 21.7789L80.6945 23.2026ZM83.6622 17.6701L84.8218 16.8427V16.8427L83.6622 17.6701ZM81.3555 14.4375L80.1959 15.2649V15.2649L81.3555 14.4375ZM80.9143 11.2105L82.2535 11.6962V11.6961L80.9143 11.2105ZM82.2686 7.47574L83.6078 7.96136V7.96136L82.2686 7.47574ZM77.9259 2.94496L77.4968 1.58663V1.58663L77.9259 2.94496ZM74.1409 4.14068L73.7118 2.78234V2.78234L74.1409 4.14068ZM70.9355 3.56339L70.0594 4.68661V4.68662L70.9355 3.56339ZM63.5796 3.86697C63.5939 2.14494 65.5754 1.18906 66.9305 2.24607L68.6827 -0.000391096C65.4634 -2.5115 60.7646 -0.237709 60.7307 3.84331L63.5796 3.86697ZM63.5467 7.83621L63.5796 3.86698L60.7307 3.84331L60.6978 7.81254L63.5467 7.83621ZM63.408 8.95702C63.4961 8.59365 63.5435 8.21783 63.5467 7.8362L60.6978 7.81254C60.6964 7.97379 60.6764 8.13214 60.6393 8.2851L63.408 8.95702ZM44.1653 8.12351C50.1882 6.67832 56.22 7.44793 61.4138 9.90841L62.6335 7.3337C56.8738 4.60508 50.1783 3.75082 43.5006 5.35313L44.1653 8.12351ZM29.3845 17.8215C32.9099 13.1319 38.0204 9.59796 44.1653 8.12351L43.5006 5.35313C36.6874 6.98792 31.0156 10.9104 27.1072 16.1095L29.3845 17.8215ZM25.6998 15.0243L26.9683 17.5957L29.5233 16.3353L28.2549 13.7639L25.6998 15.0243ZM21.9774 15.0243C22.7385 13.4813 24.9387 13.4813 25.6998 15.0243L28.2549 13.7639C26.4489 10.1027 21.2283 10.1027 19.4223 13.7639L21.9774 15.0243ZM20.2219 18.5829L21.9774 15.0243L19.4223 13.7639L17.6669 17.3225L20.2219 18.5829ZM16.5141 21.2776C18.1182 21.0443 19.5048 20.0366 20.2219 18.5829L17.6669 17.3225C17.3646 17.9352 16.7803 18.3599 16.1042 18.4582L16.5141 21.2776ZM12.586 21.8486L16.5141 21.2776L16.1042 18.4582L12.1761 19.0292L12.586 21.8486ZM11.4356 25.3882C10.2043 24.1874 10.884 22.096 12.586 21.8486L12.1761 19.0292C8.13776 19.6163 6.52492 24.5787 9.44643 27.4278L11.4356 25.3882ZM14.2801 28.1623L11.4356 25.3882L9.44643 27.4278L12.291 30.2019L14.2801 28.1623ZM15.6956 32.5198C15.9693 30.9229 15.4401 29.2935 14.2801 28.1623L12.291 30.2019C12.7798 30.6787 13.0029 31.3654 12.8875 32.0384L15.6956 32.5198ZM15.0244 36.4351L15.6956 32.5198L12.8875 32.0384L12.2163 35.9538L15.0244 36.4351ZM18.036 38.6226C16.5135 39.4234 14.7337 38.1307 15.0244 36.4351L12.2163 35.9538C11.5266 39.9768 15.7497 43.0442 19.3623 41.1441L18.036 38.6226ZM21.5462 36.7763L18.036 38.6226L19.3623 41.1441L22.8725 39.2977L21.5462 36.7763ZM22.6693 36.3509C22.2831 36.4453 21.9057 36.5872 21.5462 36.7763L22.8725 39.2977C23.0243 39.2179 23.1832 39.1582 23.3457 39.1185L22.6693 36.3509ZM24.7984 39.5073C24.6443 38.8439 24.517 38.1808 24.4156 37.519L21.5994 37.9504C21.7118 38.6838 21.8528 39.418 22.0233 40.152L24.7984 39.5073ZM23.7449 41.2144L23.7456 41.2143L23.0762 38.445L23.0755 38.4452L23.7449 41.2144ZM24.8386 39.6778L24.7955 39.4978L22.0249 40.1618L22.0681 40.3418L24.8386 39.6778ZM30.6889 64.1321L24.8388 39.6784L22.0679 40.3413L27.9181 64.795L30.6889 64.1321ZM30.6998 64.178L30.6892 64.1333L27.9178 64.7939L27.9285 64.8386L30.6998 64.178ZM30.71 64.2204L30.6993 64.1757L27.929 64.8409L27.9397 64.8856L30.71 64.2204ZM30.8205 64.6824L30.7103 64.2216L27.9395 64.8845L28.0497 65.3453L30.8205 64.6824ZM29.1081 63.6274L29.1035 63.6285L29.7667 66.3992L29.7714 66.3981L29.1081 63.6274ZM62.2038 83.533C48.3293 86.8622 34.3846 78.4326 30.8188 64.6558L28.0607 65.3697C32.0142 80.6446 47.477 89.9966 62.8686 86.3034L62.2038 83.533ZM81.6408 52.4592C84.6963 66.3593 76.0791 80.2037 62.2038 83.533L62.8686 86.3034C78.2594 82.6104 87.8107 67.2575 84.4234 51.8475L81.6408 52.4592ZM82.7045 50.767L82.6998 50.7682L83.3643 53.5386L83.369 53.5375L82.7045 50.767ZM81.5304 51.9783L81.6514 52.4838L84.4221 51.8207L84.3012 51.3152L81.5304 51.9783ZM75.6842 27.5411L81.5304 51.9782L84.3012 51.3153L78.455 26.8783L75.6842 27.5411ZM75.6692 27.4781L75.6838 27.5396L78.4554 26.8798L78.4408 26.8183L75.6692 27.4781ZM75.6552 27.4197L75.6699 27.4812L78.44 26.8153L78.4253 26.7539L75.6552 27.4197ZM75.6264 27.2997L75.6548 27.4183L78.4256 26.7553L78.3972 26.6367L75.6264 27.2997ZM77.3472 28.3527L77.3477 28.3525L76.6759 25.5839L76.6754 25.584L77.3472 28.3527ZM74.4608 23.7011C74.9292 24.857 75.3209 26.0611 75.6281 27.3088L78.3945 26.6278C78.0546 25.2471 77.6208 23.913 77.1012 22.631L74.4608 23.7011ZM76.7781 21.6445C76.3235 21.6291 75.8746 21.6768 75.4429 21.7823L76.1191 24.5499C76.3008 24.5055 76.4897 24.4854 76.6816 24.4919L76.7781 21.6445ZM80.7428 21.7789L76.7781 21.6445L76.6815 24.4919L80.6462 24.6263L80.7428 21.7789ZM82.5027 18.4976C83.5021 19.8982 82.4613 21.8372 80.7428 21.7789L80.6462 24.6263C84.7253 24.7646 87.1922 20.1646 84.8218 16.8427L82.5027 18.4976ZM80.1959 15.2649L82.5027 18.4976L84.8218 16.8427L82.5151 13.6101L80.1959 15.2649ZM79.5751 10.7249C79.0227 12.2482 79.2547 13.9459 80.1959 15.2649L82.5151 13.6101C82.1184 13.0543 82.0205 12.3386 82.2535 11.6962L79.5751 10.7249ZM80.9294 6.99012L79.5751 10.7249L82.2535 11.6961L83.6078 7.96136L80.9294 6.99012ZM78.355 4.3033C79.9938 3.78559 81.5163 5.37181 80.9294 6.99013L83.6078 7.96136C84.9989 4.12514 81.3892 0.356963 77.4968 1.58663L78.355 4.3033ZM74.57 5.49902L78.355 4.3033L77.4968 1.58663L73.7118 2.78234L74.57 5.49902ZM70.0594 4.68662C71.3375 5.68353 73.0244 5.9873 74.57 5.49902L73.7118 2.78234C73.0605 2.98808 72.35 2.86007 71.8117 2.44016L70.0594 4.68662ZM66.9305 2.24606L70.0594 4.68661L71.8117 2.44016L68.6827 -0.000390649L66.9305 2.24606Z" fill="black" mask="url(#path-4-inside-1_1_5676)"/>
<path d="M40.7787 66.5669C41.6738 68.0213 47.3373 70.6036 58.4112 68.6525C69.4851 66.7014 76.8018 63.7226 78.508 60.1202" stroke="black" stroke-width="1.51676"/>
<ellipse cx="45.931" cy="44.8244" rx="3.41271" ry="3.7919" transform="rotate(-6.77646 45.931 44.8244)" fill="black"/>
<ellipse cx="70.2108" cy="41.0311" rx="3.41271" ry="3.7919" transform="rotate(-6.27568 70.2108 41.0311)" fill="black"/>
<path d="M65.8059 31.762C67.9547 30.7508 73.0105 29.8281 76.044 34.2267" stroke="black" stroke-width="1.51676" stroke-linecap="round"/>
<path d="M37.2072 41.3581C37.9923 39.1169 40.8785 34.8645 46.1419 35.7846" stroke="black" stroke-width="1.51676" stroke-linecap="round"/>
<path d="M60.2399 46.5061C60.1135 47.9597 60.2399 51.1322 61.7566 52.194C63.6526 53.5211 61.567 56.7442 57.7751 55.9859" stroke="#171921" stroke-width="1.51676"/>
<path d="M34.8582 86.6332C35.0553 86.5423 35.3316 86.618 35.466 86.8532C42.0544 98.3849 58.1614 97.4601 63.0913 86.9502C63.2215 86.6726 63.5275 86.5791 63.7368 86.6736C76.9517 92.6374 84.8048 99.0586 89.7755 108.164C92.9347 113.952 91.7277 119.917 88.0283 124.486C84.3141 129.073 78.1057 132.212 71.3911 132.212H26.5378C19.8122 132.212 13.6267 129.063 9.96408 124.479C6.31707 119.916 5.18608 113.967 8.44742 108.225C13.8382 98.7337 22.0841 92.5228 34.8582 86.6332Z" fill="#D7FFF5" stroke="black" stroke-width="1.42575" stroke-linecap="round" stroke-linejoin="round"/>
<path d="M35.3622 87.1675C37.1684 104.551 37.602 114.81 35.5678 131.694" stroke="black" stroke-width="1.42575"/>
<path d="M63.848 87.3726C62.0418 104.756 61.6082 115.015 63.6424 131.899" stroke="black" stroke-width="1.42575"/>
<path fill-rule="evenodd" clip-rule="evenodd" d="M79.1398 108.672C78.4324 106.537 75.352 106.537 74.6446 108.672L74.3719 109.495C74.0555 110.45 73.1481 111.096 72.1243 111.096H71.2418C68.9525 111.096 68.0006 113.969 69.8527 115.288L70.5666 115.797C71.3949 116.387 71.7415 117.433 71.4252 118.388L71.1525 119.211C70.445 121.346 72.9371 123.121 74.7892 121.802L75.5031 121.293C76.3314 120.703 77.453 120.703 78.2813 121.293L78.9952 121.802C80.8474 123.121 83.3394 121.346 82.6319 119.211L82.3593 118.388C82.0429 117.433 82.3895 116.387 83.2178 115.797L83.9317 115.288C85.7838 113.969 84.832 111.096 82.5426 111.096H81.6601C80.6363 111.096 79.7289 110.45 79.4125 109.495L79.1398 108.672ZM76.8922 117.531C78.1974 117.531 79.2555 116.494 79.2555 115.214C79.2555 113.934 78.1974 112.896 76.8922 112.896C75.587 112.896 74.5289 113.934 74.5289 115.214C74.5289 116.494 75.587 117.531 76.8922 117.531Z" fill="#323232"/>
</svg>
