<svg width="97" height="125" viewBox="0 0 97 125" fill="none" xmlns="http://www.w3.org/2000/svg">
<path d="M71.6681 104.34C66.6016 97.2942 62.6376 83.672 62.1685 76.8609L38.0676 66.468L28.0403 104.34H71.6681Z" fill="#F7F6F5" stroke="black" stroke-width="1.40331"/>
<mask id="mask0_1_5707" style="mask-type:alpha" maskUnits="userSpaceOnUse" x="28" y="66" width="44" height="42">
<path d="M71.6681 107.863C66.6016 100.817 62.6376 83.672 62.1685 76.8609L38.0676 66.468L28.0403 107.863H71.6681Z" fill="#F9C9B6"/>
</mask>
<g mask="url(#mask0_1_5707)">
<g style="mix-blend-mode:multiply">
<ellipse cx="61.1129" cy="65.7634" rx="20.7584" ry="19.0241" fill="black"/>
</g>
</g>
<mask id="path-4-inside-1_1_5707" fill="white">
<path fill-rule="evenodd" clip-rule="evenodd" d="M82.1062 45.1339C82.1015 45.114 82.0968 45.0941 82.0921 45.0743C82.0873 45.0544 82.0826 45.0346 82.0778 45.0147L76.3393 21.0081C76.3306 20.9713 76.3219 20.9345 76.3131 20.8976C76.3043 20.8608 76.2954 20.824 76.2865 20.7872L76.2704 20.72L76.2701 20.7201C72.6974 6.19581 58.0906 -2.73488 43.5547 0.755883C29.0187 4.24665 20.0356 18.8423 23.4176 33.4124L23.4168 33.4126L29.3576 58.2658L29.3623 58.2646C33.0694 72.5997 47.568 81.3737 61.9969 77.9086C76.4258 74.4436 85.3832 60.0367 82.2067 45.5742L82.2113 45.5731L82.1062 45.1339Z"/>
</mask>
<path fill-rule="evenodd" clip-rule="evenodd" d="M82.1062 45.1339C82.1015 45.114 82.0968 45.0941 82.0921 45.0743C82.0873 45.0544 82.0826 45.0346 82.0778 45.0147L76.3393 21.0081C76.3306 20.9713 76.3219 20.9345 76.3131 20.8976C76.3043 20.8608 76.2954 20.824 76.2865 20.7872L76.2704 20.72L76.2701 20.7201C72.6974 6.19581 58.0906 -2.73488 43.5547 0.755883C29.0187 4.24665 20.0356 18.8423 23.4176 33.4124L23.4168 33.4126L29.3576 58.2658L29.3623 58.2646C33.0694 72.5997 47.568 81.3737 61.9969 77.9086C76.4258 74.4436 85.3832 60.0367 82.2067 45.5742L82.2113 45.5731L82.1062 45.1339Z" fill="#F7F6F5"/>
<path d="M82.1062 45.1339L80.6523 45.4782L80.653 45.4812L82.1062 45.1339ZM82.0778 45.0147L80.6245 45.3621L80.6253 45.3654L82.0778 45.0147ZM76.3393 21.0081L74.8846 21.3497L74.886 21.3555L76.3393 21.0081ZM76.3131 20.8976L74.8599 21.245L74.8599 21.245L76.3131 20.8976ZM76.2865 20.7872L74.8332 21.1346L74.8347 21.1405L76.2865 20.7872ZM76.2704 20.72L77.7237 20.3726L77.3762 18.9189L75.9226 19.2669L76.2704 20.72ZM76.2701 20.7201L74.8191 21.077L75.1738 22.5189L76.6179 22.1732L76.2701 20.7201ZM43.5547 0.755883L43.2057 -0.697002V-0.697002L43.5547 0.755883ZM23.4176 33.4124L23.7678 34.865L25.2081 34.5178L24.8731 33.0746L23.4176 33.4124ZM23.4168 33.4126L23.0666 31.96L21.6168 32.3095L21.9635 33.76L23.4168 33.4126ZM29.3576 58.2658L27.9043 58.6131L28.252 60.0676L29.7062 59.7187L29.3576 58.2658ZM29.3623 58.2646L30.8089 57.8905L30.4413 56.4691L29.0136 56.8117L29.3623 58.2646ZM61.9969 77.9086L62.3458 79.3615L61.9969 77.9086ZM82.2067 45.5742L81.8579 44.1213L80.4329 44.4635L80.7473 45.8948L82.2067 45.5742ZM82.2113 45.5731L82.5601 47.026L84.0115 46.6776L83.6645 45.2258L82.2113 45.5731ZM83.5602 44.7896C83.5553 44.7688 83.5503 44.7479 83.5453 44.7268L80.6388 45.4217C80.6433 45.4404 80.6478 45.4592 80.6523 45.4782L83.5602 44.7896ZM83.5453 44.7268C83.5404 44.7062 83.5353 44.6852 83.5302 44.664L80.6253 45.3654C80.6298 45.3839 80.6343 45.4026 80.6388 45.4217L83.5453 44.7268ZM74.886 21.3555L80.6245 45.3621L83.531 44.6673L77.7925 20.6607L74.886 21.3555ZM77.7939 20.6666C77.7848 20.6279 77.7756 20.5891 77.7664 20.5502L74.8599 21.245C74.8682 21.2798 74.8765 21.3147 74.8847 21.3497L77.7939 20.6666ZM77.7664 20.5503C77.7571 20.5114 77.7477 20.4727 77.7383 20.434L74.8347 21.1405C74.8431 21.1753 74.8515 21.2101 74.8599 21.245L77.7664 20.5503ZM74.8172 21.0674L74.8332 21.1346L77.7397 20.4398L77.7237 20.3726L74.8172 21.0674ZM76.6179 22.1732L76.6182 22.1731L75.9226 19.2669L75.9222 19.2669L76.6179 22.1732ZM77.721 20.3632C73.9528 5.04401 58.5443 -4.38051 43.2057 -0.697002L43.9036 2.20877C57.637 -1.08926 71.442 7.34761 74.8191 21.077L77.721 20.3632ZM43.2057 -0.697002C27.8683 2.98622 18.3953 18.384 21.9621 33.7503L24.8731 33.0746C21.6759 19.3007 30.169 5.50707 43.9036 2.20877L43.2057 -0.697002ZM23.7669 34.8652L23.7678 34.865L23.0674 31.9598L23.0666 31.96L23.7669 34.8652ZM30.8108 57.9184L24.87 33.0652L21.9635 33.76L27.9043 58.6131L30.8108 57.9184ZM29.0136 56.8117L29.009 56.8128L29.7062 59.7187L29.7109 59.7176L29.0136 56.8117ZM27.9157 58.6387C31.8258 73.7587 47.1202 83.0179 62.3458 79.3615L61.648 76.4557C48.0159 79.7294 34.313 71.4406 30.8089 57.8905L27.9157 58.6387ZM62.3458 79.3615C77.5703 75.7054 87.0163 60.5068 83.6661 45.2537L80.7473 45.8948C83.7502 59.5666 75.2812 73.1818 61.648 76.4557L62.3458 79.3615ZM81.8624 44.1202L81.8579 44.1213L82.5556 47.0271L82.5601 47.026L81.8624 44.1202ZM80.653 45.4812L80.758 45.9205L83.6645 45.2258L83.5595 44.7865L80.653 45.4812Z" fill="black" mask="url(#path-4-inside-1_1_5707)"/>
<path d="M47.2334 55.998L73.1222 52.3229L73.2272 53.0626C73.8651 57.5562 70.7394 61.7162 66.2458 62.3541L56.6299 63.7192C52.1363 64.3571 47.9763 61.2314 47.3384 56.7377L47.2334 55.998Z" fill="black"/>
<path fill-rule="evenodd" clip-rule="evenodd" d="M72.8147 52.8686C72.5009 52.6049 72.0806 52.4707 71.6429 52.5328L49.4275 55.6865C50.6069 57.8355 52.9986 59.0632 55.4624 58.7318L67.8906 57.0604C70.236 56.7449 72.145 55.0842 72.8147 52.8686ZM71.9132 61.5495L52.5005 64.3053L52.5586 63.5204C52.7034 61.5635 54.2116 59.9821 56.1594 59.7447L67.3948 58.3756C69.3669 58.1353 71.2285 59.3403 71.8167 61.238L71.9132 61.5495Z" fill="white"/>
<path d="M47.6141 55.2564C46.9576 55.2486 46.4547 55.8283 46.5462 56.4729C47.2462 61.4037 52.1737 64.4648 56.9541 63.3621C58.4882 63.0083 60.0226 62.6985 61.3629 62.5083C62.8864 62.292 64.6927 62.1543 66.4759 62.0682C71.0323 61.8482 74.6234 57.8075 73.9293 53.2321C73.8413 52.6523 73.2849 52.2437 72.6884 52.3712C71.2192 52.685 64.7159 54.0552 60.2528 54.6888C55.8813 55.3094 49.2585 55.2759 47.6141 55.2564Z" stroke="black" stroke-width="1.49419"/>
<path fill-rule="evenodd" clip-rule="evenodd" d="M41.9333 39.6091C41.976 39.9128 42.3619 39.9805 42.5765 39.7614C43.4974 38.8217 44.913 38.1313 46.5563 37.9361C47.5256 37.8209 48.4583 37.8918 49.2892 38.1125C49.5708 38.1873 49.8477 37.9495 49.7494 37.6752C49.1273 35.9399 47.3714 34.7992 45.4629 35.026C43.2436 35.2897 41.6583 37.3026 41.922 39.5219C41.9254 39.5511 41.9292 39.5802 41.9333 39.6091Z" fill="#171921"/>
<path fill-rule="evenodd" clip-rule="evenodd" d="M65.877 35.8739C65.9192 36.1776 66.3051 36.2454 66.5201 36.0267C67.4325 35.0982 68.8329 34.4162 70.458 34.2231C71.416 34.1093 72.3378 34.1789 73.1595 34.3963C73.4412 34.4708 73.718 34.233 73.6192 33.9588C73.0011 32.243 71.2634 31.1157 69.3748 31.3402C67.1761 31.6014 65.6055 33.5956 65.8668 35.7942C65.8699 35.8209 65.8734 35.8474 65.877 35.8739Z" fill="#171921"/>
<path d="M65.29 24.6855C67.4068 23.6894 72.3875 22.7804 75.3758 27.1136" stroke="black" stroke-width="1.49419" stroke-linecap="round"/>
<path d="M37.1167 34.1389C37.8902 31.931 40.7334 27.7419 45.9185 28.6483" stroke="black" stroke-width="1.49419" stroke-linecap="round"/>
<path d="M38.0487 31.874L35.752 29.8469" stroke="black" stroke-width="1.49419" stroke-linecap="round"/>
<path d="M74.2406 25.0378L76.5374 23.0107" stroke="black" stroke-width="1.49419" stroke-linecap="round"/>
<path d="M40.4579 29.7659L38.9463 27.1016" stroke="black" stroke-width="1.49419" stroke-linecap="round"/>
<path d="M71.4581 23.6768L72.9697 21.0125" stroke="black" stroke-width="1.49419" stroke-linecap="round"/>
<path d="M43.4748 28.416L42.6526 25.4651" stroke="black" stroke-width="1.49419" stroke-linecap="round"/>
<path d="M68.0677 23.4475L68.8899 20.4966" stroke="black" stroke-width="1.49419" stroke-linecap="round"/>
<path d="M59.8975 36.8359C59.8975 42.0656 62.5124 46.1746 62.5124 46.1746C62.5124 46.1746 61.205 48.4159 57.4695 47.6688" stroke="#171921" stroke-width="1.49419"/>
<path d="M34.6667 78.7424C34.8611 78.6524 35.134 78.727 35.2663 78.9595C41.7328 90.3158 57.537 89.4051 62.3767 79.0552C62.5049 78.7809 62.807 78.6888 63.0133 78.7823C75.9787 84.6573 83.6834 90.9832 88.5601 99.9547C91.6612 105.66 90.467 111.536 86.8209 116.035C83.1602 120.551 77.0461 123.64 70.4337 123.64H26.5924C19.9692 123.64 13.8774 120.541 10.2673 116.028C6.67249 111.534 5.55296 105.674 8.7546 100.014C14.0436 90.6629 22.1338 84.5441 34.6667 78.7424Z" fill="#DBFFD8" stroke="black" stroke-width="1.40454" stroke-linecap="round" stroke-linejoin="round"/>
<path d="M44.2439 87.1497H53.1208V123.534H44.2439V87.1497Z" fill="#323232"/>
<ellipse cx="48.6824" cy="101.703" rx="2.42097" ry="2.42564" fill="#999999"/>
<ellipse cx="48.6824" cy="112.214" rx="2.42097" ry="2.42564" fill="#999999"/>
<rect x="60.7871" y="104.129" width="22.1922" height="4.85127" rx="2.42564" fill="#323232"/>
</svg>
