<svg width="23" height="24" viewBox="0 0 23 24" fill="none" xmlns="http://www.w3.org/2000/svg">
<path d="M11.5 18.75C11.1071 18.75 10.7812 18.41 10.7812 18V15C10.7812 14.59 11.1071 14.25 11.5 14.25C11.8929 14.25 12.2187 14.59 12.2187 15V18C12.2187 18.41 11.8929 18.75 11.5 18.75Z" fill="white"/>
<path d="M16.8668 22.56H6.13342C4.38925 22.56 2.79842 21.16 2.51092 19.37L1.23633 11.4C1.0255 10.16 1.61008 8.57001 2.55883 7.78001L9.20008 2.23001C10.4843 1.15001 12.5063 1.16001 13.8001 2.24001L20.4413 7.78001C21.3805 8.57001 21.9555 10.16 21.7638 11.4L20.4892 19.36C20.2017 21.13 18.5726 22.56 16.8668 22.56ZM11.4905 2.93001C10.9826 2.93001 10.4747 3.09001 10.1009 3.40001L3.45967 8.96001C2.923 9.41001 2.53967 10.45 2.65467 11.16L3.92925 19.12C4.10175 20.17 5.108 21.06 6.13342 21.06H16.8668C17.8922 21.06 18.8984 20.17 19.0709 19.11L20.3455 11.15C20.4509 10.45 20.0676 9.39001 19.5405 8.95001L12.8993 3.41001C12.5159 3.09001 11.9984 2.93001 11.4905 2.93001Z" fill="white"/>
</svg>
