<svg width="16" height="17" viewBox="0 0 16 17" fill="none" xmlns="http://www.w3.org/2000/svg">
<path d="M10.1733 15.3605H5.82665C2.55332 15.3605 1.15332 13.9605 1.15332 10.6872V10.6005C1.15332 7.64053 2.31999 6.21386 4.93332 5.9672C5.19999 5.9472 5.45332 6.1472 5.47999 6.42053C5.50665 6.69386 5.30665 6.94053 5.02665 6.9672C2.93332 7.16053 2.15332 8.1472 2.15332 10.6072V10.6939C2.15332 13.4072 3.11332 14.3672 5.82665 14.3672H10.1733C12.8867 14.3672 13.8467 13.4072 13.8467 10.6939V10.6072C13.8467 8.13386 13.0533 7.1472 10.92 6.9672C10.6467 6.94053 10.44 6.70053 10.4667 6.4272C10.4933 6.15387 10.7267 5.9472 11.0067 5.97386C13.66 6.20053 14.8467 7.63386 14.8467 10.6139V10.7005C14.8467 13.9605 13.4467 15.3605 10.1733 15.3605Z" fill="white"/>
<path d="M8 10.9473C7.72667 10.9473 7.5 10.7206 7.5 10.4473V1.8606C7.5 1.58726 7.72667 1.3606 8 1.3606C8.27333 1.3606 8.5 1.58726 8.5 1.8606V10.4473C8.5 10.7273 8.27333 10.9473 8 10.9473Z" fill="white"/>
<path d="M7.99998 11.6939C7.87331 11.6939 7.74664 11.6473 7.64664 11.5473L5.41331 9.31395C5.21998 9.12061 5.21998 8.80061 5.41331 8.60728C5.60664 8.41395 5.92664 8.41395 6.11998 8.60728L7.99998 10.4873L9.87998 8.60728C10.0733 8.41395 10.3933 8.41395 10.5866 8.60728C10.78 8.80061 10.78 9.12061 10.5866 9.31395L8.35331 11.5473C8.25331 11.6473 8.12664 11.6939 7.99998 11.6939Z" fill="white"/>
</svg>
