<svg width="24" height="24" viewBox="0 0 24 24" fill="none" xmlns="http://www.w3.org/2000/svg">
<path d="M10 17.3655H6.21C4.32186 17.3655 3.2049 17.0719 2.54153 16.4085C1.87816 15.7451 1.5845 14.6282 1.5845 12.74V6.74003C1.5845 4.85189 1.87816 3.73493 2.54153 3.07156C3.2049 2.40819 4.32186 2.11453 6.21 2.11453H16.74C18.6281 2.11453 19.7451 2.40819 20.4085 3.07156C21.0718 3.73493 21.3655 4.85189 21.3655 6.74003C21.3655 6.96529 21.1753 7.15553 20.95 7.15553C20.7247 7.15553 20.5345 6.96529 20.5345 6.74003C20.5345 6.00004 20.5022 5.38855 20.4005 4.89196C20.298 4.39173 20.1199 3.98189 19.809 3.671C19.4981 3.36011 19.0883 3.182 18.5881 3.07952C18.0915 2.97778 17.48 2.94553 16.74 2.94553H6.21C5.47001 2.94553 4.85852 2.97778 4.36193 3.07952C3.8617 3.182 3.45186 3.36011 3.14097 3.671C2.83008 3.98189 2.65197 4.39173 2.54949 4.89196C2.44776 5.38855 2.4155 6.00004 2.4155 6.74003V12.74C2.4155 13.48 2.44776 14.0915 2.54949 14.5881C2.65197 15.0883 2.83008 15.4982 3.14097 15.8091C3.45186 16.1199 3.8617 16.2981 4.36193 16.4005C4.85852 16.5023 5.47001 16.5345 6.21 16.5345H10C10.2253 16.5345 10.4155 16.7248 10.4155 16.95C10.4155 17.1753 10.2253 17.3655 10 17.3655Z" fill="#FFC091" stroke="#FFC091" stroke-width="0.669006"/>
<path d="M10 21.9412C9.74395 21.9412 9.52875 21.7261 9.52875 21.47V16.94C9.52875 16.684 9.74395 16.4688 10 16.4688C10.256 16.4688 10.4712 16.684 10.4712 16.94V21.47C10.4712 21.7336 10.2585 21.9412 10 21.9412Z" fill="#FFC091" stroke="#FFC091" stroke-width="0.557505"/>
<path d="M10 13.7H2C1.59 13.7 1.25 13.36 1.25 12.95C1.25 12.54 1.59 12.2 2 12.2H10C10.41 12.2 10.75 12.54 10.75 12.95C10.75 13.36 10.41 13.7 10 13.7Z" fill="#FFC091"/>
<path d="M9.99999 22.22H6.73999C6.32999 22.22 5.98999 21.88 5.98999 21.47C5.98999 21.06 6.32999 20.72 6.73999 20.72H9.99999C10.41 20.72 10.75 21.06 10.75 21.47C10.75 21.88 10.41 22.22 9.99999 22.22Z" fill="#FFC091"/>
<path d="M19.04 22.22H15.49C12.72 22.22 11.78 21.28 11.78 18.51V12.8C11.78 10.03 12.72 9.09003 15.49 9.09003H19.04C21.81 9.09003 22.75 10.03 22.75 12.8V18.51C22.75 21.29 21.81 22.22 19.04 22.22ZM15.49 10.59C13.53 10.59 13.28 10.84 13.28 12.8V18.51C13.28 20.47 13.53 20.72 15.49 20.72H19.04C21 20.72 21.25 20.47 21.25 18.51V12.8C21.25 10.84 21 10.59 19.04 10.59H15.49Z" fill="#FFC091"/>
<path d="M17.3 18.97C17.04 18.97 16.78 18.87 16.59 18.68C16.5 18.59 16.43 18.48 16.38 18.36C16.33 18.23 16.3 18.1 16.3 17.97C16.3 17.71 16.41 17.45 16.59 17.27C16.82 17.04 17.17 16.93 17.5 16.99C17.56 17.01 17.62 17.03 17.68 17.05C17.74 17.08 17.8 17.11 17.85 17.14C17.91 17.18 17.96 17.22 18.01 17.27C18.19 17.45 18.3 17.71 18.3 17.97C18.3 18.1 18.27 18.23 18.22 18.36C18.17 18.48 18.1 18.59 18.01 18.68C17.96 18.73 17.91 18.77 17.85 18.8C17.8 18.84 17.74 18.87 17.68 18.9C17.62 18.92 17.56 18.94 17.5 18.95C17.43 18.97 17.37 18.97 17.3 18.97Z" fill="#FFC091"/>
</svg>
