<svg width="24" height="24" viewBox="0 0 24 24" fill="none" xmlns="http://www.w3.org/2000/svg">
<g clip-path="url(#clip0_1_4493)">
<path d="M11.9715 20.3487H10.7293C10.7293 20.3487 10.9569 21.7909 11.0991 22.4787C11.1216 22.5668 11.1591 22.6486 11.2095 22.7191C11.2599 22.7897 11.3221 22.8475 11.3922 22.889C11.4623 22.9305 11.5388 22.9549 11.6173 22.9606C11.6957 22.9664 11.7743 22.9534 11.8482 22.9224C11.9914 22.8678 12.1144 22.7579 12.1971 22.6108C12.2798 22.4636 12.3173 22.288 12.3035 22.1126C12.2371 21.6245 11.9715 20.3487 11.9715 20.3487ZM11.2888 15.7449C10.919 13.4264 10.9948 13.9145 10.6155 11.5849C10.4448 10.5421 10.4543 10.5421 9.55344 10.8194C9.30689 10.8971 9.24997 11.008 9.29738 11.3186C9.57238 12.9494 9.35431 11.7734 9.61982 13.4153C9.77155 14.3804 9.93275 15.3456 10.094 16.3107H11.3457C11.3267 16.111 11.3172 15.9224 11.2888 15.7449ZM21.1319 15.2679C21.9474 13.2933 22.175 12.7719 23.0285 10.8305V10.5754C22.9241 10.2093 22.744 9.92083 22.3836 9.93193C22.0233 9.94302 21.8621 10.1982 21.7198 10.5421C21.1129 12.0397 21.0655 12.0841 20.4586 13.5928C20.4221 13.7224 20.3482 13.8331 20.2496 13.906C20.151 13.9788 20.0338 14.0093 19.9181 13.9922H17.4526C16.781 13.9851 16.1198 14.1868 15.5367 14.5766C14.9536 14.9665 14.4694 15.5304 14.1336 16.2109C13.906 16.6657 13.7164 17.054 13.6405 17.2315C13.5897 17.364 13.5049 17.4748 13.3979 17.5484C13.2908 17.6219 13.1668 17.6546 13.0431 17.6419H10.2836C9.04346 17.6425 7.82544 18.0266 6.753 18.7552C5.68056 19.4838 4.7918 20.5311 4.17673 21.7909C4.12227 21.886 4.08493 21.9931 4.06699 22.1056C4.04906 22.2181 4.0509 22.3337 4.0724 22.4454C4.19222 22.6861 4.37999 22.8705 4.60344 22.9668C4.72899 22.9995 4.86038 22.9796 4.97473 22.9107C5.08907 22.8418 5.17915 22.7282 5.2293 22.5896L5.33363 22.3788C5.84093 21.3644 6.5667 20.5232 7.43857 19.9393C8.31044 19.3553 9.2979 19.049 10.3026 19.0508H17.0922C17.4966 19.0457 17.8949 19.1663 18.2464 19.4002C18.5979 19.6341 18.8901 19.9729 19.0931 20.382L20.1646 22.4676C20.4112 22.9446 20.7526 23.0888 21.1129 22.867C21.1879 22.8084 21.2518 22.7324 21.3005 22.6436C21.3492 22.5548 21.3818 22.4552 21.396 22.3511C21.4102 22.2469 21.4059 22.1404 21.3833 22.0383C21.3607 21.9362 21.3203 21.8406 21.2646 21.7576C20.8948 21.0476 20.525 20.3265 20.1646 19.5944C20.0505 19.3292 19.9864 19.0385 19.9766 18.7418C19.9668 18.4452 20.0115 18.1496 20.1078 17.8749C20.4017 16.9985 20.7716 16.1443 21.1319 15.2679ZM16.6655 17.6197H14.8827L15.2336 16.9208C15.4646 16.475 15.7905 16.1068 16.1794 15.8521C16.5683 15.5974 17.0069 15.4649 17.4526 15.4676H19.6526C19.3736 16.1145 18.9467 16.6581 18.4193 17.0381C17.892 17.418 17.2849 17.6194 16.6655 17.6197ZM18.9319 7.87964C18.4155 6.28986 17.4913 4.92588 16.2862 3.97472C14.2383 2.32324 11.7236 1.66328 9.26897 2.1332C7.39758 2.40261 5.62584 3.27008 4.14828 4.64034C2.62581 5.98709 1.56609 7.92732 1.16119 10.1094C1.09481 10.4977 1.0569 10.8638 1 11.2188V11.8733C1.28448 12.4834 1.53104 12.5389 2.01466 12.1617C2.31398 11.9151 2.6313 11.6998 2.96294 11.5183C3.46913 11.2146 4.02981 11.0562 4.59869 11.0562C5.16757 11.0562 5.72828 11.2146 6.23447 11.5183C6.34265 11.5901 6.4687 11.6161 6.59135 11.5919C6.714 11.5676 6.82575 11.4946 6.90774 11.3852C7.60873 10.5828 8.49575 10.0389 9.45863 9.821C10.7429 9.48423 12.0817 9.56868 13.3276 10.0651C13.4301 10.1154 13.5439 10.1253 13.6517 10.0932C13.7595 10.0612 13.8554 9.98902 13.925 9.88756C14.3234 9.38229 14.8204 8.99731 15.3736 8.7655C15.9268 8.53369 16.5197 8.46193 17.1017 8.55634C17.5095 8.55634 17.9172 8.73383 18.325 8.7893C18.7327 8.84477 19.1595 8.4676 18.9319 7.87964ZM13.6974 8.41212C13.5423 8.54091 13.413 8.70743 13.3181 8.90024C13.0993 8.77116 12.8745 8.65635 12.6448 8.55634C11.6759 8.28829 10.67 8.25833 9.69061 8.46837C8.71127 8.67842 7.77981 9.12389 6.95517 9.77662C6.789 9.94597 6.64238 10.1399 6.51897 10.3535L5.62759 10.0429C4.49884 9.69061 3.29764 9.85733 2.27069 10.5088C2.20431 8.54524 4.76465 5.05079 6.88878 4.25206C8.16885 3.68371 9.52183 3.3724 10.8905 3.3313C13.2897 3.26474 16.2198 4.78455 17.4241 7.32497C16.1088 7.11729 14.7754 7.50627 13.6974 8.41212Z" fill="#FFC091"/>
</g>
<defs>
<clipPath id="clip0_1_4493">
<rect width="22" height="21" fill="white" transform="translate(1 2)"/>
</clipPath>
</defs>
</svg>
