<svg width="24" height="24" viewBox="0 0 24 24" fill="none" xmlns="http://www.w3.org/2000/svg">
<path d="M15.65 21.4099C15.22 21.4099 14.79 21.3199 14.44 21.1499L9.18998 18.5199C8.88998 18.3699 8.29998 18.3799 8.00998 18.5499L5.64998 19.8999C4.62998 20.4799 3.57998 20.5599 2.78998 20.0899C1.98998 19.6299 1.53998 18.6899 1.53998 17.5099V7.78991C1.53998 6.87991 2.13998 5.84991 2.92998 5.39991L7.25998 2.91991C7.98998 2.49991 9.09998 2.46991 9.84998 2.84991L15.1 5.47991C15.4 5.62991 15.98 5.60991 16.28 5.44991L18.63 4.10991C19.65 3.52991 20.7 3.44991 21.49 3.91991C22.29 4.37991 22.74 5.31991 22.74 6.49991V16.2299C22.74 17.1399 22.14 18.1699 21.35 18.6199L17.02 21.0999C16.64 21.2999 16.14 21.4099 15.65 21.4099ZM8.63998 16.9199C9.06998 16.9199 9.49998 17.0099 9.84998 17.1799L15.1 19.8099C15.4 19.9599 15.98 19.9399 16.28 19.7799L20.61 17.2999C20.93 17.1199 21.24 16.5799 21.24 16.2199V6.48991C21.24 5.85991 21.06 5.38991 20.73 5.20991C20.41 5.02991 19.91 5.09991 19.37 5.40991L17.02 6.74991C16.29 7.16991 15.18 7.19991 14.43 6.81991L9.17998 4.18991C8.87998 4.03991 8.29998 4.05991 7.99998 4.21991L3.66998 6.69991C3.34998 6.87991 3.03998 7.41991 3.03998 7.78991V17.5199C3.03998 18.1499 3.21998 18.6199 3.53998 18.7999C3.85998 18.9899 4.35998 18.9099 4.90998 18.5999L7.25998 17.2599C7.64998 17.0299 8.14998 16.9199 8.63998 16.9199Z" fill="#FFC091"/>
<path d="M8.56 17.75C8.15 17.75 7.81 17.41 7.81 17V4C7.81 3.59 8.15 3.25 8.56 3.25C8.97 3.25 9.31 3.59 9.31 4V17C9.31 17.41 8.97 17.75 8.56 17.75Z" fill="#FFC091"/>
<path d="M15.73 20.7501C15.32 20.7501 14.98 20.4101 14.98 20.0001V6.62012C14.98 6.21012 15.32 5.87012 15.73 5.87012C16.14 5.87012 16.48 6.21012 16.48 6.62012V20.0001C16.48 20.4101 16.14 20.7501 15.73 20.7501Z" fill="#FFC091"/>
</svg>
