<svg width="16" height="16" viewBox="0 0 16 16" fill="none" xmlns="http://www.w3.org/2000/svg">
<path d="M5.91819 12.7252C5.89022 12.7134 5.85726 12.7009 5.82214 12.6906C5.8542 12.6998 5.88647 12.7115 5.91819 12.7252ZM9.81605 12.9132L9.81063 12.9197C9.9366 12.7605 10.1299 12.6666 10.3335 12.6666C10.1034 12.6666 9.92456 12.783 9.81605 12.9132ZM8.00016 14.7066C7.72043 14.7066 7.4302 14.5671 7.20564 14.2738C7.39071 14.5149 7.66577 14.6966 8.00016 14.6966C8.33456 14.6966 8.60962 14.5149 8.79469 14.2738C8.57012 14.5671 8.2799 14.7066 8.00016 14.7066ZM2.33494 2.33476C2.06219 2.60752 1.85093 2.928 1.69428 3.29112C1.8572 2.91012 2.07204 2.59188 2.33205 2.33187C2.59206 2.07186 2.9103 1.85702 3.2913 1.69409C2.92818 1.85075 2.6077 2.062 2.33494 2.33476ZM13.6654 2.33476C13.3926 2.062 13.0721 1.85074 12.709 1.69409C13.09 1.85702 13.4083 2.07186 13.6683 2.33187C13.9283 2.59188 14.1431 2.91014 14.3061 3.29116C14.1494 2.92802 13.9381 2.60753 13.6654 2.33476ZM13.6654 11.6652C13.9382 11.3924 14.1494 11.0719 14.3061 10.7088C14.1431 11.0898 13.9283 11.4081 13.6683 11.6681C13.4083 11.9281 13.09 12.143 12.709 12.3059C13.0721 12.1492 13.3926 11.938 13.6654 11.6652Z" stroke="white"/>
<mask id="path-2-inside-1_29_2173" fill="white">
<path d="M11.3332 5.83331H4.6665C4.39317 5.83331 4.1665 5.60665 4.1665 5.33331C4.1665 5.05998 4.39317 4.83331 4.6665 4.83331H11.3332C11.6065 4.83331 11.8332 5.05998 11.8332 5.33331C11.8332 5.60665 11.6065 5.83331 11.3332 5.83331Z"/>
</mask>
<path d="M11.3332 5.83331H4.6665C4.39317 5.83331 4.1665 5.60665 4.1665 5.33331C4.1665 5.05998 4.39317 4.83331 4.6665 4.83331H11.3332C11.6065 4.83331 11.8332 5.05998 11.8332 5.33331C11.8332 5.60665 11.6065 5.83331 11.3332 5.83331Z" fill="white"/>
<path d="M11.3332 4.83331H4.6665V6.83331H11.3332V4.83331ZM4.6665 4.83331C4.94546 4.83331 5.1665 5.05436 5.1665 5.33331H3.1665C3.1665 6.15893 3.84089 6.83331 4.6665 6.83331V4.83331ZM5.1665 5.33331C5.1665 5.61226 4.94546 5.83331 4.6665 5.83331V3.83331C3.84089 3.83331 3.1665 4.50769 3.1665 5.33331H5.1665ZM4.6665 5.83331H11.3332V3.83331H4.6665V5.83331ZM11.3332 5.83331C11.0542 5.83331 10.8332 5.61226 10.8332 5.33331H12.8332C12.8332 4.50769 12.1588 3.83331 11.3332 3.83331V5.83331ZM10.8332 5.33331C10.8332 5.05436 11.0542 4.83331 11.3332 4.83331V6.83331C12.1588 6.83331 12.8332 6.15893 12.8332 5.33331H10.8332Z" fill="white" mask="url(#path-2-inside-1_29_2173)"/>
<mask id="path-4-inside-2_29_2173" fill="white">
<path d="M8.6665 9.16669H4.6665C4.39317 9.16669 4.1665 8.94002 4.1665 8.66669C4.1665 8.39335 4.39317 8.16669 4.6665 8.16669H8.6665C8.93984 8.16669 9.1665 8.39335 9.1665 8.66669C9.1665 8.94002 8.93984 9.16669 8.6665 9.16669Z"/>
</mask>
<path d="M8.6665 9.16669H4.6665C4.39317 9.16669 4.1665 8.94002 4.1665 8.66669C4.1665 8.39335 4.39317 8.16669 4.6665 8.16669H8.6665C8.93984 8.16669 9.1665 8.39335 9.1665 8.66669C9.1665 8.94002 8.93984 9.16669 8.6665 9.16669Z" fill="white"/>
<path d="M8.6665 8.16669H4.6665V10.1667H8.6665V8.16669ZM4.6665 8.16669C4.94546 8.16669 5.1665 8.38774 5.1665 8.66669H3.1665C3.1665 9.49231 3.84089 10.1667 4.6665 10.1667V8.16669ZM5.1665 8.66669C5.1665 8.94564 4.94546 9.16669 4.6665 9.16669V7.16669C3.84089 7.16669 3.1665 7.84107 3.1665 8.66669H5.1665ZM4.6665 9.16669H8.6665V7.16669H4.6665V9.16669ZM8.6665 9.16669C8.38755 9.16669 8.1665 8.94564 8.1665 8.66669H10.1665C10.1665 7.84107 9.49212 7.16669 8.6665 7.16669V9.16669ZM8.1665 8.66669C8.1665 8.38774 8.38755 8.16669 8.6665 8.16669V10.1667C9.49212 10.1667 10.1665 9.49231 10.1665 8.66669H8.1665Z" fill="white" mask="url(#path-4-inside-2_29_2173)"/>
</svg>
