<svg width="24" height="24" viewBox="0 0 24 24" fill="none" xmlns="http://www.w3.org/2000/svg">
<path d="M16.4899 22.75H7.49993C5.77993 22.75 4.48994 22.29 3.68994 21.38C2.88994 20.47 2.57993 19.15 2.78993 17.44L2.78994 9.94C3.04994 7.73 4.50994 5.75 8.40994 5.75H15.6099C19.4999 5.75 20.9599 7.73 21.2299 9.94V17.44C21.4299 19.15 21.1299 20.48 20.3299 21.38C19.4999 22.29 18.2199 22.75 16.4899 22.75ZM8.39993 7.25C5.51993 7.25 4.47994 8.38999 4.26994 10.11V17.61C4.11994 18.88 4.29993 19.81 4.80993 20.38C5.31993 20.95 6.21993 21.24 7.49993 21.24H16.4899C17.7699 21.24 18.6699 20.95 19.1799 20.38C19.6899 19.81 19.8699 18.88 19.7199 17.61V10.11C19.5099 8.37999 18.4799 7.25 15.5899 7.25H8.39993Z" fill="#FFC091"/>
<path d="M16 8.75C15.59 8.75 15.25 8.41 15.25 8V4.5C15.25 3.42 14.58 2.75 13.5 2.75H10.5C9.42 2.75 8.75 3.42 8.75 4.5V8C8.75 8.41 8.41 8.75 8 8.75C7.59 8.75 7.25 8.41 7.25 8V4.5C7.25 2.59 8.59 1.25 10.5 1.25H13.5C15.41 1.25 16.75 2.59 16.75 4.5V8C16.75 8.41 16.41 8.75 16 8.75Z" fill="#FFC091"/>
<path d="M18.16 14.78H5.75C5.34 14.78 5 14.44 5 14.03C5 13.62 5.34 13.28 5.75 13.28H18.16C18.57 13.28 18.91 13.62 18.91 14.03C18.91 14.44 18.57 14.78 18.16 14.78Z" fill="#FFC091"/>
<path d="M10 14C10 13.1716 10.6716 12.5 11.5 12.5H12.5C13.3284 12.5 14 13.1716 14 14C14 14.8284 13.3284 15.5 12.5 15.5H11.5C10.6716 15.5 10 14.8284 10 14Z" fill="#FFC091"/>
</svg>
