<svg width="55" height="63" viewBox="0 0 55 63" fill="none" xmlns="http://www.w3.org/2000/svg">
<path opacity="0.58" d="M2.97729 1.48862C2.97729 0.666479 3.64378 0 4.46592 0H35.8725L52.3201 15.75V61.5114C52.3201 62.3335 51.6536 63 50.8315 63H4.46592C3.64378 63 2.97729 62.3335 2.97729 61.5114V1.48862Z" fill="white" fill-opacity="0.14"/>
<path d="M35.8491 0L52.2967 15.75H37.3377C36.5156 15.75 35.8491 15.0835 35.8491 14.2614V0Z" fill="white" fill-opacity="0.14"/>
<rect x="0.000244141" y="28.8101" width="54.9296" height="21" rx="3.72156" fill="white"/>
<rect x="0.372401" y="29.1823" width="54.1853" height="20.2557" rx="3.34941" stroke="white" stroke-opacity="0.14" stroke-width="0.744313"/>
<path d="M19.9396 43.2384V36.9844H22.5302C23.1727 36.9844 23.6975 37.1865 24.1046 37.5906C24.5145 37.9919 24.7195 38.505 24.7195 39.1301C24.7195 39.7553 24.5145 40.2684 24.1046 40.6697C23.6975 41.0709 23.1727 41.2715 22.5302 41.2715H21.2829V43.2384H19.9396ZM21.2829 40.0678H22.3993C22.7075 40.0678 22.9474 39.9849 23.1189 39.8192C23.2934 39.6506 23.3806 39.4209 23.3806 39.1301C23.3806 38.8394 23.2934 38.6112 23.1189 38.4454C22.9474 38.2768 22.7075 38.1925 22.3993 38.1925H21.2829V40.0678ZM25.6964 43.2384V36.9844H28.1082C28.9833 36.9844 29.6782 37.2621 30.1928 37.8174C30.7103 38.3698 30.9691 39.1345 30.9691 40.1114C30.9691 41.0883 30.7103 41.8544 30.1928 42.4098C29.6782 42.9622 28.9833 43.2384 28.1082 43.2384H25.6964ZM27.0397 42.0347H28.0645C28.5181 42.0347 28.8917 41.869 29.1854 41.5375C29.479 41.2061 29.6259 40.7307 29.6259 40.1114C29.6259 39.4921 29.479 39.0182 29.1854 38.6897C28.8917 38.3582 28.5181 38.1925 28.0645 38.1925H27.0397V42.0347ZM31.9504 43.2384V36.9844H36.1938V38.1925H33.2936V39.6666H35.9714V40.8703H33.2936V43.2384H31.9504Z" fill="#260A2F"/>
</svg>
