<svg width="16" height="17" viewBox="0 0 16 17" fill="none" xmlns="http://www.w3.org/2000/svg">
<path d="M13.7466 9.2405C13.4933 9.2405 13.2799 9.04717 13.2466 8.79383C13.0866 7.28717 12.2733 5.9205 11.0199 5.05383C10.7933 4.89383 10.7399 4.58717 10.8933 4.3605C11.0533 4.13383 11.3666 4.0805 11.5866 4.23383C13.0799 5.26717 14.0399 6.89383 14.2333 8.68717C14.2599 8.9605 14.0666 9.20717 13.7866 9.2405C13.7799 9.2405 13.7599 9.2405 13.7466 9.2405Z" fill="white"/>
<path d="M2.3266 9.2739C2.3066 9.2739 2.29327 9.2739 2.27327 9.2739C1.99994 9.24056 1.79994 8.9939 1.8266 8.72056C2.0066 6.92723 2.95994 5.30723 4.43327 4.26056C4.65994 4.10056 4.97327 4.1539 5.13327 4.38056C5.29327 4.60723 5.23994 4.92056 5.01327 5.08056C3.77327 5.9539 2.97327 7.32056 2.81994 8.82723C2.79994 9.08056 2.57994 9.2739 2.3266 9.2739Z" fill="white"/>
<path d="M8.0399 15.6006C7.05323 15.6006 6.11323 15.3739 5.23323 14.9339C4.98656 14.8072 4.88656 14.5072 5.01323 14.2606C5.1399 14.0139 5.4399 13.9139 5.68656 14.0406C7.12656 14.7672 8.8599 14.7806 10.3132 14.0806C10.5599 13.9606 10.8599 14.0672 10.9799 14.3139C11.0999 14.5606 10.9932 14.8606 10.7466 14.9806C9.89323 15.3939 8.98656 15.6006 8.0399 15.6006Z" fill="white"/>
<path d="M8.0401 6.15393C6.7401 6.15393 5.68677 5.1006 5.68677 3.8006C5.68677 2.5006 6.7401 1.44727 8.0401 1.44727C9.3401 1.44727 10.3934 2.5006 10.3934 3.8006C10.3934 5.1006 9.33343 6.15393 8.0401 6.15393ZM8.0401 2.45393C7.29343 2.45393 6.68677 3.0606 6.68677 3.80727C6.68677 4.55393 7.29343 5.1606 8.0401 5.1606C8.78677 5.1606 9.39343 4.55393 9.39343 3.80727C9.39343 3.0606 8.7801 2.45393 8.0401 2.45393Z" fill="white"/>
<path d="M3.22003 14.3073C1.92003 14.3073 0.866699 13.2539 0.866699 11.9539C0.866699 10.6606 1.92003 9.60059 3.22003 9.60059C4.52003 9.60059 5.57337 10.6539 5.57337 11.9539C5.57337 13.2473 4.52003 14.3073 3.22003 14.3073ZM3.22003 10.6006C2.47337 10.6006 1.8667 11.2073 1.8667 11.9539C1.8667 12.7006 2.47337 13.3073 3.22003 13.3073C3.9667 13.3073 4.57337 12.7006 4.57337 11.9539C4.57337 11.2073 3.9667 10.6006 3.22003 10.6006Z" fill="white"/>
<path d="M12.7801 14.3073C11.4801 14.3073 10.4268 13.2539 10.4268 11.9539C10.4268 10.6606 11.4801 9.60059 12.7801 9.60059C14.0801 9.60059 15.1334 10.6539 15.1334 11.9539C15.1268 13.2473 14.0734 14.3073 12.7801 14.3073ZM12.7801 10.6006C12.0334 10.6006 11.4268 11.2073 11.4268 11.9539C11.4268 12.7006 12.0334 13.3073 12.7801 13.3073C13.5268 13.3073 14.1334 12.7006 14.1334 11.9539C14.1268 11.2073 13.5268 10.6006 12.7801 10.6006Z" fill="white"/>
</svg>
