<svg width="32" height="32" viewBox="0 0 32 32" fill="none" xmlns="http://www.w3.org/2000/svg">
<path d="M2.6665 16C2.6665 23.3544 8.64546 29.3333 15.9998 29.3333C8.64755 29.3333 2.6665 23.3523 2.6665 16ZM2.6665 16C2.6665 8.64586 8.64505 2.66707 15.9991 2.66666C8.64714 2.66707 2.6665 8.64796 2.6665 16ZM15.9998 2.66666C23.3537 2.66666 29.3324 8.64479 29.3332 15.9985C29.3323 8.64688 23.3516 2.66666 15.9998 2.66666ZM29.3332 16C29.3332 23.3539 23.355 29.3325 16.0014 29.3333C23.3529 29.3325 29.3332 23.3518 29.3332 16Z" stroke="#9FE870" stroke-width="2"/>
<mask id="path-2-inside-1_1_2958" fill="white">
<path d="M14.1064 20.7733C13.8398 20.7733 13.5864 20.6667 13.3998 20.48L9.62643 16.7067C9.23976 16.32 9.23976 15.68 9.62643 15.2933C10.0131 14.9067 10.6531 14.9067 11.0398 15.2933L14.1064 18.36L20.9598 11.5067C21.3464 11.12 21.9864 11.12 22.3731 11.5067C22.7598 11.8933 22.7598 12.5333 22.3731 12.92L14.8131 20.48C14.6264 20.6667 14.3731 20.7733 14.1064 20.7733Z"/>
</mask>
<path d="M14.1064 20.7733C13.8398 20.7733 13.5864 20.6667 13.3998 20.48L9.62643 16.7067C9.23976 16.32 9.23976 15.68 9.62643 15.2933C10.0131 14.9067 10.6531 14.9067 11.0398 15.2933L14.1064 18.36L20.9598 11.5067C21.3464 11.12 21.9864 11.12 22.3731 11.5067C22.7598 11.8933 22.7598 12.5333 22.3731 12.92L14.8131 20.48C14.6264 20.6667 14.3731 20.7733 14.1064 20.7733Z" fill="#9FE870"/>
<path d="M13.3998 20.48L14.814 19.0658H14.814L13.3998 20.48ZM9.62643 16.7067L8.21221 18.1209H8.21221L9.62643 16.7067ZM11.0398 15.2933L12.454 13.8791L11.0398 15.2933ZM14.1064 18.36L12.6922 19.7742L14.1064 21.1884L15.5206 19.7742L14.1064 18.36ZM20.9598 11.5067L22.374 12.9209L20.9598 11.5067ZM22.3731 12.92L23.7873 14.3342V14.3342L22.3731 12.92ZM14.8131 20.48L13.3989 19.0658L14.8131 20.48ZM14.1064 18.7733C14.3762 18.7733 14.6298 18.8817 14.814 19.0658L11.9855 21.8942C12.543 22.4517 13.3033 22.7733 14.1064 22.7733V18.7733ZM14.814 19.0658L11.0406 15.2925L8.21221 18.1209L11.9855 21.8942L14.814 19.0658ZM11.0406 15.2925C11.435 15.6868 11.435 16.3132 11.0406 16.7076L8.21221 13.8791C7.0445 15.0468 7.0445 16.9532 8.21221 18.1209L11.0406 15.2925ZM11.0406 16.7076C10.6463 17.1019 10.0199 17.1019 9.62555 16.7076L12.454 13.8791C11.2863 12.7114 9.37993 12.7114 8.21221 13.8791L11.0406 16.7076ZM9.62555 16.7076L12.6922 19.7742L15.5206 16.9458L12.454 13.8791L9.62555 16.7076ZM15.5206 19.7742L22.374 12.9209L19.5455 10.0925L12.6922 16.9458L15.5206 19.7742ZM22.374 12.9209C21.9796 13.3153 21.3533 13.3153 20.9589 12.9209L23.7873 10.0925C22.6196 8.92475 20.7133 8.92475 19.5455 10.0925L22.374 12.9209ZM20.9589 12.9209C20.5645 12.5265 20.5645 11.9002 20.9589 11.5058L23.7873 14.3342C24.955 13.1665 24.955 11.2602 23.7873 10.0925L20.9589 12.9209ZM20.9589 11.5058L13.3989 19.0658L16.2273 21.8942L23.7873 14.3342L20.9589 11.5058ZM13.3989 19.0658C13.583 18.8817 13.8366 18.7733 14.1064 18.7733V22.7733C14.9096 22.7733 15.6698 22.4517 16.2273 21.8942L13.3989 19.0658Z" fill="#9FE870" mask="url(#path-2-inside-1_1_2958)"/>
</svg>
