<svg width="22" height="22" viewBox="0 0 22 22" fill="none" xmlns="http://www.w3.org/2000/svg">
<path d="M14.5 14.75C14.32 14.75 14.12 14.74 13.93 14.73C13.56 14.71 13.26 14.41 13.23 14.04C13.01 11.25 10.74 8.98999 7.95999 8.76999C7.58999 8.73999 7.28999 8.44001 7.26999 8.07001C7.25999 7.88001 7.25 7.69 7.25 7.5C7.25 3.5 10.5 0.25 14.5 0.25C18.5 0.25 21.75 3.5 21.75 7.5C21.75 11.5 18.5 14.75 14.5 14.75ZM8.75 7.35999C11.73 7.87999 14.12 10.27 14.64 13.25C17.75 13.17 20.25 10.63 20.25 7.5C20.25 4.33 17.67 1.75 14.5 1.75C11.38 1.75 8.83 4.24999 8.75 7.35999Z" fill="#FFC091"/>
<path d="M7.5 21.75C3.5 21.75 0.25 18.5 0.25 14.5C0.25 10.5 3.5 7.25 7.5 7.25C7.68 7.25 7.88001 7.25999 8.07001 7.26999C11.6 7.54999 14.46 10.41 14.73 13.92C14.74 14.12 14.75 14.31 14.75 14.5C14.75 18.5 11.5 21.75 7.5 21.75ZM7.5 8.75C4.33 8.75 1.75 11.33 1.75 14.5C1.75 17.67 4.33 20.25 7.5 20.25C10.67 20.25 13.25 17.67 13.25 14.5C13.25 14.34 13.24 14.18 13.23 14.03C13.01 11.26 10.75 8.98999 7.95999 8.76999C7.81999 8.75999 7.66 8.75 7.5 8.75Z" fill="#FFC091"/>
<path d="M2 6.34C1.77 6.34 1.54999 6.29999 1.32999 6.20999C0.669987 5.93999 0.25 5.3 0.25 4.59V2C0.25 1.04 1.04 0.25 2 0.25H4.59C5.3 0.25 5.92999 0.669987 6.20999 1.32999C6.47999 1.98999 6.32999 2.73999 5.82999 3.23999L3.23999 5.82999C2.89999 6.15999 2.46 6.34 2 6.34ZM2 1.75C1.86 1.75 1.75 1.86 1.75 2V4.59C1.75 4.74 1.84999 4.80001 1.89999 4.82001C1.95999 4.84001 2.07001 4.86999 2.17001 4.76999L4.76001 2.17999C4.86001 2.07999 4.84 1.97 4.81 1.91C4.78 1.85 4.71999 1.76001 4.57999 1.76001H2V1.75Z" fill="#FFC091"/>
<path d="M19.9998 21.75H17.4098C16.6998 21.75 16.0698 21.33 15.7898 20.67C15.5198 20.01 15.6698 19.26 16.1698 18.76L18.7598 16.17C19.2598 15.67 20.0098 15.52 20.6698 15.79C21.3298 16.06 21.7498 16.7 21.7498 17.41V20C21.7498 20.96 20.9598 21.75 19.9998 21.75ZM19.9898 17.16C19.9398 17.16 19.8798 17.18 19.8198 17.24L17.2298 19.83C17.1298 19.93 17.1498 20.04 17.1798 20.1C17.2098 20.16 17.2698 20.25 17.4098 20.25H19.9998C20.1398 20.25 20.2498 20.14 20.2498 20V17.41C20.2498 17.26 20.1498 17.2 20.0998 17.18C20.0698 17.17 20.0298 17.16 19.9898 17.16Z" fill="#FFC091"/>
</svg>
