<svg width="16" height="16" viewBox="0 0 16 16" fill="none" xmlns="http://www.w3.org/2000/svg">
<path d="M14 4.48666C13.9867 4.48666 13.9667 4.48666 13.9467 4.48666C10.42 4.13333 6.9 3.99999 3.41334 4.35333L2.05334 4.48666C1.77334 4.51333 1.52667 4.31333 1.5 4.03333C1.47334 3.75333 1.67334 3.51333 1.94667 3.48666L3.30667 3.35333C6.85334 2.99333 10.4467 3.13333 14.0467 3.48666C14.32 3.51333 14.52 3.75999 14.4933 4.03333C14.4733 4.29333 14.2533 4.48666 14 4.48666Z" fill="white"/>
<path d="M5.66669 3.81333C5.64003 3.81333 5.61336 3.81333 5.58003 3.80666C5.31336 3.76 5.12669 3.49999 5.17336 3.23333L5.32003 2.35999C5.42669 1.71999 5.57336 0.833328 7.12669 0.833328H8.87336C10.4334 0.833328 10.58 1.75333 10.68 2.36666L10.8267 3.23333C10.8734 3.50666 10.6867 3.76666 10.42 3.80666C10.1467 3.85333 9.88669 3.66666 9.84669 3.39999L9.70003 2.53333C9.60669 1.95333 9.58669 1.83999 8.88003 1.83999H7.13336C6.42669 1.83999 6.41336 1.93333 6.31336 2.52666L6.16003 3.39333C6.12003 3.64 5.90669 3.81333 5.66669 3.81333Z" fill="white"/>
<path d="M10.14 15.1667H5.85997C3.53331 15.1667 3.43997 13.88 3.36664 12.84L2.93331 6.12667C2.91331 5.85334 3.12664 5.61334 3.39997 5.59334C3.67997 5.58 3.91331 5.78667 3.93331 6.06L4.36664 12.7733C4.43997 13.7867 4.46664 14.1667 5.85997 14.1667H10.14C11.54 14.1667 11.5666 13.7867 11.6333 12.7733L12.0666 6.06C12.0866 5.78667 12.3266 5.58 12.6 5.59334C12.8733 5.61334 13.0866 5.84667 13.0666 6.12667L12.6333 12.84C12.56 13.88 12.4666 15.1667 10.14 15.1667Z" fill="white"/>
<path d="M9.10666 11.5H6.88666C6.61332 11.5 6.38666 11.2733 6.38666 11C6.38666 10.7267 6.61332 10.5 6.88666 10.5H9.10666C9.37999 10.5 9.60666 10.7267 9.60666 11C9.60666 11.2733 9.37999 11.5 9.10666 11.5Z" fill="white"/>
<path d="M9.66665 8.83333H6.33331C6.05998 8.83333 5.83331 8.60666 5.83331 8.33333C5.83331 8.05999 6.05998 7.83333 6.33331 7.83333H9.66665C9.93998 7.83333 10.1666 8.05999 10.1666 8.33333C10.1666 8.60666 9.93998 8.83333 9.66665 8.83333Z" fill="white"/>
</svg>
