<svg width="24" height="24" viewBox="0 0 24 24" fill="none" xmlns="http://www.w3.org/2000/svg">
<path d="M13 9.4155H7C6.77474 9.4155 6.5845 9.22526 6.5845 9C6.5845 8.77474 6.77474 8.5845 7 8.5845H13C13.2253 8.5845 13.4155 8.77474 13.4155 9C13.4155 9.22526 13.2253 9.4155 13 9.4155Z" fill="#FFC091" stroke="#FFC091" stroke-width="0.669006"/>
<path d="M16.4077 12.2168L16.4077 12.2168L16.4074 12.2132C16.3356 11.4686 16.6041 10.741 17.1454 10.2087L17.1454 10.2088L17.1509 10.2032C17.5951 9.74117 18.2309 9.4787 18.9099 9.4787H20.9955C21.8367 9.50625 22.4712 10.1656 22.4712 10.9699V13.03C22.4712 13.8371 21.8338 14.4937 21.0254 14.5212H19.0399C17.663 14.5212 16.5147 13.5008 16.4077 12.2168ZM20.9873 10.4217L20.9786 10.4212H20.9699H18.9199C18.5017 10.4212 18.1087 10.5767 17.8225 10.8731C17.4768 11.2091 17.3045 11.6695 17.3523 12.1351C17.4174 12.9627 18.2012 13.5787 19.0399 13.5787H20.9999C21.2975 13.5787 21.5287 13.32 21.5287 13.03V10.9699C21.5287 10.6445 21.2643 10.4391 20.9873 10.4217Z" fill="#FFC091" stroke="#FFC091" stroke-width="0.557505"/>
<path d="M16 21.25H7C3.56 21.25 1.25 18.94 1.25 15.5V8.5C1.25 5.42 3.14998 3.19001 6.09998 2.82001C6.36998 2.78001 6.68 2.75 7 2.75H16C16.24 2.75 16.55 2.76 16.87 2.81C19.82 3.15 21.75 5.39 21.75 8.5V9.95001C21.75 10.36 21.41 10.7 21 10.7H18.92C18.57 10.7 18.25 10.83 18.02 11.07L18.01 11.08C17.73 11.35 17.6 11.72 17.63 12.1C17.68 12.76 18.32 13.29 19.04 13.29H21C21.41 13.29 21.75 13.63 21.75 14.04V15.49C21.75 18.94 19.44 21.25 16 21.25ZM7 4.25C6.76 4.25 6.52999 4.26999 6.29999 4.29999C4.09999 4.57999 2.75 6.18 2.75 8.5V15.5C2.75 18.08 4.42 19.75 7 19.75H16C18.58 19.75 20.25 18.08 20.25 15.5V14.8H19.04C17.53 14.8 16.25 13.68 16.13 12.24C16.05 11.42 16.35 10.6 16.95 10.02C17.47 9.49002 18.17 9.20001 18.92 9.20001H20.25V8.5C20.25 6.16 18.88 4.54998 16.66 4.28998C16.42 4.24998 16.21 4.25 16 4.25H7Z" fill="#FFC091"/>
</svg>
